<!-- Grayscale recreation of the Floorp icon based on https://avatars.githubusercontent.com/u/94953125?s=200&v=4 -->
<svg xmlns="http://www.w3.org/2000/svg" viewBox="0 0 512 512" fill-opacity="context-fill-opacity" width="512" height="512" fill="context-fill"><path fill-rule="evenodd" d="m383.822 431.957 88.734-153.094a44.87 44.87 0 0 0 0-45.004L383.822 80.765a44.874 44.874 0 0 0-38.823-22.37H167.001a44.874 44.874 0 0 0-38.823 22.37L39.444 233.86a44.872 44.872 0 0 0 0 45.004l88.734 153.094a44.873 44.873 0 0 0 38.823 22.371h177.998a44.873 44.873 0 0 0 38.823-22.371Zm117.626-136.348a78.269 78.269 0 0 0 0-78.496L412.714 64.019A78.266 78.266 0 0 0 344.999 25H167.001a78.266 78.266 0 0 0-67.715 39.02L10.552 217.112a78.267 78.267 0 0 0 0 78.496l88.734 153.094a78.265 78.265 0 0 0 67.715 39.019h177.998a78.265 78.265 0 0 0 67.715-39.019l88.734-153.094Z" clip-rule="evenodd"/><path fill-rule="evenodd" d="M432.659 240.705a31.164 31.164 0 0 1 0 31.312l-12.968 22.324a12.524 12.524 0 0 1-10.82 6.232l-214.205.152a6.26 6.26 0 0 0-6.257 6.261v101.953a8.131 8.131 0 0 1-8.131 8.131 30.49 30.49 0 0 1-26.434-15.294L79.216 271.965a31.307 31.307 0 0 1 0-31.207l74.393-129.403a31.305 31.305 0 0 1 27.141-15.703h150.399a31.304 31.304 0 0 1 27.216 15.835l22.636 39.818c2.373 4.174-.641 9.356-5.443 9.356H194.67a6.26 6.26 0 0 0-6.261 6.261v61.317a6.262 6.262 0 0 0 6.261 6.262h227.21c4.442 0 8.548 2.363 10.779 6.204Z" clip-rule="evenodd"/></svg>