<!-- Grayscale recreation of the LibreWolf icon based on https://upload.wikimedia.org/wikipedia/commons/d/d0/LibreWolf_icon.svg -->
<svg xmlns="http://www.w3.org/2000/svg" viewBox="0 0 512 512" fill-opacity="context-fill-opacity" width="512" height="512" fill="context-fill"><g clip-path="url(#a)"><path d="M362.981 393.023c-17.237 13.443-35.091 22.724-57 29.63-7.518 2.37-8.78 2.396-8.104.167 1.535-5.061 2.615-11.895 2.988-18.906.591-11.108 7.622-28.725 14.665-36.747 6.196-7.057 7.381-12.68 7.503-35.597.1-18.971.305-21.185 2.743-29.691 4.151-14.48 8.451-24.705 13.472-32.036 2.552-3.725 6.628-10.373 9.058-14.773 2.43-4.4 5.958-10.325 7.84-13.168 4.915-7.426 15.418-17.681 20.606-20.119 5.798-2.726 12.187-10.065 14.301-16.429 2.172-6.542 1.507-16.866-1.332-20.654-1.673-2.232-2.734-2.63-7.021-2.63-3.926 0-5.608-.524-7.56-2.354-2.685-2.519-4.659-2.178-4.659.803 0 2.337-3.576 6.803-4.617 5.766-.433-.433.025-2.908 1.019-5.5 3.641-9.503 4.829-15.575 4.248-21.715-.959-10.123-7.27-25.61-10.707-26.272-.826-.159-5.314 2.918-9.973 6.838-24.295 20.443-42.757 34.464-55.612 42.235-6.135 3.708-6.154 3.713-16.5 3.488-12.249-.265-13.978.376-34.41 12.762-7.076 4.29-15.05 8.63-17.718 9.644-2.682 1.019-11.198 2.496-19.041 3.302-16.109 1.655-20.419 2.656-26.447 6.137-5.96 3.443-7.457 6.006-6.189 10.599 1.242 4.497 7.842 13.34 15.776 21.139l5.974 5.871-4.618 7.128c-2.539 3.921-6.359 11.165-8.488 16.097-4.231 9.802-5.391 11.65-13.826 22.032-7.306 8.994-15.393 21.944-22.957 36.762-6.468 12.673-9.565 15.959-21.438 22.752l-.322.184c-2.5 1.432-3.993 2.288-5.345 2.104-2.002-.272-3.695-2.825-7.894-9.158l-.365-.549c-13.779-20.772-23.284-45.537-27.094-70.595-1.904-12.52-1.866-38.487.076-51.563 2.961-19.944 10.551-41.769 20.92-60.161 14.08-24.971 39.787-50.708 64.655-64.728 27.316-15.4 54.916-22.614 86.393-22.584 29.734.03 52.372 5.383 78.791 18.629 17.411 8.73 30.944 18.789 45.81 34.05 23.844 24.48 38.979 53.087 46.004 86.955 2.652 12.785 3.661 42.239 1.924 56.161-3.607 28.906-15.865 58.842-33.88 82.741-6.642 8.812-22.484 24.805-31.649 31.953"/><path d="m273.466 197.981-9.236 11.828 14.861-2.085 9.236-11.827z"/><path fill-rule="evenodd" d="M512 256c0 141.385-114.615 256-256 256S0 397.385 0 256 114.615 0 256 0s256 114.615 256 256M256 480c123.712 0 224-100.288 224-224S379.712 32 256 32 32 132.288 32 256s100.288 224 224 224" clip-rule="evenodd"/></g><defs><clipPath id="a"><path d="M0 0h512v512H0z"/></clipPath></defs></svg>