<svg xmlns="http://www.w3.org/2000/svg" height="16" width="16">
<path fill-rule="evenodd" clip-rule="evenodd" d="M10.5 2C11.5 2 12 2.5 12 3.5V12.5C12 13.5 11.5 14 10.5 14H5.5C4.5 14 4 13.5 4 12.5V3.5C4 2.5 4.5 2 5.5 2H10.5ZM5.29289 6.70711C4.90237 6.31658 4.90237 5.68342 5.29289 5.29289L6.93934 3.64645C7.52513 3.06066 8.47487 3.06066 9.06066 3.64645L10.7071 5.29289C11.0976 5.68342 11.0976 6.31658 10.7071 6.70711C10.3166 7.09763 9.68342 7.09763 9.29289 6.70711L8 5.41421L6.70711 6.70711C6.31658 7.09763 5.68342 7.09763 5.29289 6.70711ZM10.7071 10.7071C11.0976 10.3166 11.0976 9.68342 10.7071 9.29289C10.3166 8.90237 9.68342 8.90237 9.29289 9.29289L8 10.5858L6.70711 9.29289C6.31658 8.90237 5.68342 8.90237 5.29289 9.29289C4.90237 9.68342 4.90237 10.3166 5.29289 10.7071L6.93934 12.3536C7.52513 12.9393 8.47487 12.9393 9.06066 12.3536L10.7071 10.7071Z"/>
</svg>
