<svg xmlns="http://www.w3.org/2000/svg" height="16" width="16">
<path fill-rule="evenodd" clip-rule="evenodd" d="M8.35357 3.64645C8.1583 3.45118 7.84172 3.45118 7.64646 3.64645L3.14646 8.14645C3.09157 8.20133 3.05022 8.26825 3.02567 8.34189L2.02567 11.3419C1.96578 11.5216 2.01254 11.7196 2.14646 11.8536C2.28038 11.9875 2.47846 12.0342 2.65813 11.9743L5.65813 10.9743C5.73177 10.9498 5.79868 10.9084 5.85357 10.8536L10.3536 6.35355C10.5488 6.15829 10.5488 5.84171 10.3536 5.64645L8.35357 3.64645ZM4.5744 10.2815L3.71852 9.42562L3.29058 10.7094L4.5744 10.2815Z"/>
<path d="M11.1465 4.85355C11.3417 5.04882 11.6583 5.04882 11.8536 4.85355L13.3536 3.35355C13.5488 3.15829 13.5488 2.84171 13.3536 2.64645L11.3536 0.646447C11.1583 0.451185 10.8417 0.451184 10.6465 0.646447L9.14646 2.14645C9.05269 2.24022 9.00001 2.36739 9.00001 2.5C9.00001 2.63261 9.05269 2.75979 9.14646 2.85355L11.1465 4.85355Z"/>
<path fill-rule="evenodd" clip-rule="evenodd" d="M10.5247 13.8485C9.80321 13.753 9.16768 13.9262 8.55205 14.3338C6.36505 15.7817 3.75895 16.4296 1.14436 15.4346C0.628184 15.2382 0.368983 14.6605 0.565415 14.1443C0.761846 13.6281 1.33953 13.3689 1.8557 13.5654C3.70573 14.2694 5.635 13.8664 7.448 12.6662C8.41476 12.0261 9.52923 11.6993 10.7871 11.8658C12.0175 12.0286 13.2887 12.6503 14.6247 13.7191C15.056 14.0641 15.1259 14.6934 14.7809 15.1247C14.4359 15.5559 13.8066 15.6259 13.3753 15.2809C12.2114 14.3497 11.2738 13.9476 10.5247 13.8485Z"/>
</svg>
