<svg width="16" height="16" viewBox="0 0 16 16" fill="none" xmlns="http://www.w3.org/2000/svg">
<g clip-path="url(#clip0_99_4)">
<path d="M0 15C0 14.4477 0.447715 14 1 14H15C15.5523 14 16 14.4477 16 15V15C16 15.5523 15.5523 16 15 16H1C0.447715 16 0 15.5523 0 15V15Z" fill="context-fill"/>
<path fill-rule="evenodd" clip-rule="evenodd" d="M13.004 0.585787C12.223 -0.195264 10.9566 -0.195261 10.1756 0.585787L4.38269 6.37868C3.98012 6.78125 3.82064 7.33487 3.90426 7.85711L2.5898 9.17157C1.32987 10.4315 2.2222 12.5858 4.00401 12.5858H6.17558C6.70602 12.5858 7.21472 12.3751 7.5898 12L7.81848 11.7713C8.34072 11.8549 8.89433 11.6955 9.2969 11.2929L15.0898 5.5C15.8708 4.71895 15.8708 3.45262 15.0898 2.67157L13.004 0.585787ZM9.50401 4.08579L11.5898 6.17157L13.6756 4.08579L11.5898 2L9.50401 4.08579ZM10.1756 7.58579L8.0898 5.5L6.00401 7.58579L8.0898 9.67157L10.1756 7.58579Z" fill="context-fill"/>
</g>
<defs>
<clipPath id="clip0_99_4">
<rect width="16" height="16" fill="white"/>
</clipPath>
</defs>
</svg>
