<svg xmlns="http://www.w3.org/2000/svg" width="16" height="16" viewBox="0 0 16 16" fill="context-fill"><path fill-rule="evenodd" d="M4.585 10.276q-.123.162-.237.365a3.4 3.4 0 0 0-.362.948.5.5 0 0 1-.983-.186 4.4 4.4 0 0 1 .471-1.248c.225-.404.538-.822.926-1.079.129-.085.38-.214.665-.105.276.104.375.355.412.466.043.133.062.282.075.404a11 11 0 0 1 .033.395c.023.278.054.484.113.616l.004.01c.054-.103.106-.245.154-.408.052-.178.09-.35.118-.473v-.005l.004-.013c.01-.046.025-.113.039-.157.003-.009.02-.063.054-.119a.5.5 0 0 1 .263-.213.5.5 0 0 1 .596.216.556.556 0 0 1 .073.286c0 .324.11.577.242.743a.65.65 0 0 0 .218.189.2.2 0 0 0 .078.017.5.5 0 0 1-.038 1c-.374 0-.722-.222-.97-.5-.108.179-.348.5-.761.5-.236 0-.452-.068-.633-.204a1.16 1.16 0 0 1-.355-.463c-.136-.306-.173-.673-.196-.938q0-.023-.003-.044" clip-rule="evenodd"/><path fill-rule="evenodd" d="M2 12V3a1 1 0 0 1 1-1h3v4h4v1.586l2-2V4.17L7.83 0H3a3 3 0 0 0-3 3v9a3 3 0 0 0 3 3h6a3 3 0 0 0 2.967-2.554 2 2 0 0 1-1.381.554H9.25q-.068 0-.132-.007A1 1 0 0 1 9 13H3a1 1 0 0 1-1-1M7 2h.002L10 4.998V5H7zm8.104 5.896.589-.589a1 1 0 0 0 0-1.414l-.586-.586a1 1 0 0 0-1.414 0l-.59.59z" clip-rule="evenodd"/><path d="m9.293 9.707 3.104-3.103 2 2-3.104 3.103a1 1 0 0 1-.707.293H9.25a.25.25 0 0 1-.25-.25v-1.336a1 1 0 0 1 .293-.707"/></svg>