<svg xmlns="http://www.w3.org/2000/svg" height="16" width="16">
<g clip-path="url(#clip0_64_30)">
<path d="M13 0H3C2.20435 0 1.44129 0.31607 0.87868 0.87868C0.31607 1.44129 0 2.20435 0 3V13C0 13.7956 0.31607 14.5587 0.87868 15.1213C1.44129 15.6839 2.20435 16 3 16H13C13.7956 16 14.5587 15.6839 15.1213 15.1213C15.6839 14.5587 16 13.7956 16 13V3C16 2.20435 15.6839 1.44129 15.1213 0.87868C14.5587 0.31607 13.7956 0 13 0ZM14 13C14 13.2652 13.8946 13.5196 13.7071 13.7071C13.5196 13.8946 13.2652 14 13 14H3C2.73478 14 2.48043 13.8946 2.29289 13.7071C2.10536 13.5196 2 13.2652 2 13V3C2 2.73478 2.10536 2.48043 2.29289 2.29289C2.48043 2.10536 2.73478 2 3 2H13C13.2652 2 13.5196 2.10536 13.7071 2.29289C13.8946 2.48043 14 2.73478 14 3V13Z"/>
<path d="M3.22275 10.8943L5.28526 9.208C5.35254 9.15127 5.43384 9.1137 5.52064 9.09925C5.60745 9.08479 5.69654 9.09397 5.77857 9.12584L7.683 9.86539C7.78107 9.90306 7.8885 9.90888 7.99007 9.88203C8.09163 9.85518 8.18216 9.79703 8.2488 9.71582L10.1025 7.44155C10.1514 7.38667 10.2119 7.34326 10.2795 7.31441C10.3472 7.28556 10.4203 7.27199 10.4938 7.27465C10.5673 7.27732 10.6393 7.29616 10.7047 7.32984C10.77 7.36351 10.8272 7.41119 10.872 7.46948L12.9183 9.81523C12.9865 9.92346 13.0171 10.0512 13.0051 10.1786V13H3L2.99657 11.3364C2.9953 11.2498 3.01525 11.1643 3.05468 11.0872C3.0941 11.0102 3.15181 10.9439 3.22275 10.8943Z"/>
<path d="M4.89 7.14C5.44228 7.14 5.89 6.69228 5.89 6.14C5.89 5.58772 5.44228 5.14 4.89 5.14C4.33772 5.14 3.89 5.58772 3.89 6.14C3.89 6.69228 4.33772 7.14 4.89 7.14Z"/>
</g>
<defs>
<clipPath id="clip0_64_30">
<rect width="16" height="16" fill="white"/>
</clipPath>
</defs>
</svg>
