<svg xmlns="http://www.w3.org/2000/svg" height="16" width="16">
<g clip-path="url(#clip0_63_14)">
<path fill-rule="evenodd" clip-rule="evenodd" d="M4.05134 0.683799C4.22599 0.159856 4.79231 -0.123304 5.31625 0.0513439L8.00003 0.945935L10.6838 0.0513439C11.2077 -0.123304 11.7741 0.159856 11.9487 0.683799C12.1234 1.20774 11.8402 1.77406 11.3163 1.94871L9.00003 2.72079V13.2793L11.3163 14.0513C11.8402 14.226 12.1234 14.7923 11.9487 15.3163C11.7741 15.8402 11.2077 16.1234 10.6838 15.9487L8.00003 15.0541L5.31625 15.9487C4.79231 16.1234 4.22599 15.8402 4.05134 15.3163C3.8767 14.7923 4.15986 14.226 4.6838 14.0513L7.00003 13.2793V2.72079L4.6838 1.94871C4.15986 1.77406 3.8767 1.20774 4.05134 0.683799Z"/>
</g>
<defs>
<clipPath id="clip0_63_14">
<rect width="16" height="16" fill="white"/>
</clipPath>
</defs>
</svg>
