<svg width="16" height="16" viewBox="0 0 16 16" fill="context-fill" xmlns="http://www.w3.org/2000/svg">
<path fill-rule="evenodd" clip-rule="evenodd" d="M4 1C2.34315 1 1 2.34315 1 4V12C1 13.6569 2.34315 15 4 15H12C13.6569 15 15 13.6569 15 12V4C15 2.34315 13.6569 1 12 1H4ZM4 2C3.44772 2 3 2.44772 3 3V11C3 11.5523 3.44772 12 4 12H12C12.5523 12 13 11.5523 13 11V3C13 2.44772 12.5523 2 12 2H4Z"/>
<path d="M9.82879 4C10.2817 4 10.67 4.10915 10.9935 4.32746C11.3205 4.54577 11.5708 4.85035 11.7445 5.2412C11.9182 5.63204 12.0033 6.08451 11.9999 6.59859V7.15317H8.37798C8.3916 7.86444 8.53975 8.39261 8.82242 8.73768C9.10509 9.07923 9.51207 9.25 10.0433 9.25C10.3839 9.25 10.6853 9.21655 10.9476 9.14965C11.2098 9.08275 11.4788 8.98416 11.7547 8.85387V9.625C11.4754 9.75528 11.2013 9.85035 10.9322 9.91021C10.6666 9.97007 10.3618 10 10.0178 10C9.69086 10 9.39116 9.95247 9.11871 9.85739C8.84966 9.7588 8.61127 9.6162 8.40352 9.42958C8.19918 9.23944 8.0289 9.00704 7.89267 8.73239C7.73942 8.98944 7.56743 9.21303 7.37671 9.40317C7.1894 9.59331 6.96633 9.7412 6.7075 9.84683C6.44867 9.94894 6.13705 10 5.77265 10C5.43208 10 5.12727 9.93838 4.85823 9.81514C4.59259 9.6919 4.38314 9.50528 4.22988 9.25528C4.07663 9.00528 4 8.68838 4 8.30458C4 7.92077 4.09366 7.59683 4.28097 7.33275C4.47168 7.06514 4.75606 6.85915 5.13409 6.71479C5.51552 6.5669 5.99061 6.48415 6.55936 6.46655L7.50954 6.4243V6.0493C7.50954 5.55986 7.40226 5.21655 7.1877 5.01937C6.97314 4.81866 6.68196 4.71831 6.31415 4.71831C6.03829 4.71831 5.76584 4.76232 5.49679 4.85035C5.23115 4.93486 4.97913 5.03873 4.74073 5.16197L4.47509 4.49648C4.72711 4.35915 5.0217 4.24472 5.35886 4.15317C5.69943 4.0581 6.03999 4.01056 6.38056 4.01056C6.81989 4.01056 7.17919 4.08979 7.45845 4.24824C7.74112 4.40669 7.94887 4.66373 8.08169 5.01937C8.26219 4.69894 8.50058 4.44894 8.79688 4.26937C9.09317 4.08979 9.43714 4 9.82879 4ZM7.4891 7.04225L6.68707 7.07923C6.02978 7.10739 5.5649 7.22535 5.29245 7.4331C5.02 7.64085 4.88377 7.93486 4.88377 8.31514C4.88377 8.64613 4.97572 8.89085 5.15963 9.0493C5.34694 9.20775 5.59555 9.28697 5.90547 9.28697C6.21198 9.28697 6.48443 9.22359 6.72283 9.09683C6.96122 8.97007 7.14854 8.77993 7.28476 8.52641C7.42099 8.27289 7.4891 7.95599 7.4891 7.5757V7.04225ZM9.81857 4.71831C9.40649 4.71831 9.07614 4.86796 8.82753 5.16725C8.57891 5.46303 8.43588 5.89437 8.39841 6.46127H11.1008C11.1042 6.11268 11.0599 5.8081 10.968 5.54754C10.876 5.28345 10.7347 5.07923 10.544 4.93486C10.3533 4.79049 10.1115 4.71831 9.81857 4.71831Z"/>
</svg>
