<svg width="16" height="16" viewBox="0 0 16 16" fill="context-fill" xmlns="http://www.w3.org/2000/svg">
<g clip-path="url(#clip0_47_4)">
<path fill-rule="evenodd" clip-rule="evenodd" d="M6.06251 0.17319L6.05778 0.170011L6.0547 0.16795C5.71817 -0.0564056 5.27962 -0.0559469 4.94356 0.169112C4.6075 0.394171 4.4401 0.799508 4.51942 1.19612C4.74582 2.32809 4.70777 3.15093 4.55734 3.79651C4.40609 4.44562 4.12746 4.97759 3.77951 5.52851C3.70075 5.6532 3.61586 5.78125 3.52735 5.91358L3.46552 6.00591C2.8122 6.98092 2 8.19302 2 10C2 11.5698 2.41203 12.8142 3.11424 13.7608C3.81184 14.7011 4.74219 15.2757 5.66403 15.6045C6.47218 15.8928 7.29297 16 8 16C8.70703 16 9.52782 15.8928 10.336 15.6045C11.2578 15.2757 12.1882 14.7011 12.8858 13.7608C13.588 12.8142 14 11.5698 14 10C14 8.84875 13.7153 7.73369 13.4487 6.93377C13.3134 6.52783 13.1779 6.18911 13.0754 5.94983C13.024 5.82994 12.9806 5.73432 12.9492 5.66696C12.9334 5.63326 12.9207 5.60657 12.9114 5.58739L12.9001 5.56429L12.8966 5.55707L12.8944 5.55279C12.7419 5.24776 12.4445 5.04149 12.1054 5.00556C11.7662 4.96964 11.4322 5.10901 11.2191 5.3753L10.6301 6.11157C10.1607 4.60602 9.31479 3.3515 8.50926 2.41171C7.90222 1.7035 7.29719 1.14907 6.84331 0.770841C6.6157 0.581171 6.42431 0.43431 6.28721 0.333121C6.21861 0.28249 6.16346 0.243182 6.124 0.215558C6.10426 0.201743 6.08844 0.190839 6.0768 0.182892L6.06251 0.17319ZM11.6843 7.99535L10.7809 9.1247C10.5156 9.45632 10.0697 9.5842 9.66899 9.44363C9.26824 9.30305 9 8.92469 9 8.5C9 6.58791 8.04019 4.93765 6.99074 3.71329C6.87715 3.58076 6.76345 3.45436 6.65106 3.33435C6.62242 3.65529 6.57289 3.95969 6.50516 4.25037C6.28141 5.21063 5.87254 5.95991 5.47049 6.59649C5.33466 6.81156 5.20397 7.01018 5.08036 7.19803C4.44724 8.16023 4 8.83994 4 10C4 11.2075 4.31114 12.0174 4.72051 12.5692C4.85519 12.7507 5.00634 12.9122 5.17075 13.0551C5.20248 12.8965 5.24028 12.7329 5.28531 12.5679C5.42753 12.047 5.66222 11.4366 6.07014 10.9386C6.50257 10.4107 7.14403 10 8 10C8.85597 10 9.49743 10.4107 9.92986 10.9386C10.3378 11.4366 10.5725 12.047 10.7147 12.5679C10.7597 12.7329 10.7975 12.8965 10.8293 13.0551C10.9937 12.9122 11.1448 12.7507 11.2795 12.5692C11.6889 12.0174 12 11.2075 12 10C12 9.3168 11.8605 8.61016 11.6843 7.99535Z"/>
</g>
</svg>
