<svg xmlns="http://www.w3.org/2000/svg" viewBox="0 0 16 16" width="16" height="16" fill="context-fill"><path fill-rule="evenodd" d="M13 3H3a1 1 0 0 0-1 1v8a1 1 0 0 0 1 1h10a1 1 0 0 0 1-1V4a1 1 0 0 0-1-1ZM3 1a3 3 0 0 0-3 3v8a3 3 0 0 0 3 3h10a3 3 0 0 0 3-3V4a3 3 0 0 0-3-3H3Z" clip-rule="evenodd"/><rect width="2" height="2" x="4" y="7" rx="1"/><rect width="2" height="2" x="7" y="7" rx="1"/><rect width="6" height="2" x="5" y="10" rx="1"/><rect width="2" height="2" x="10" y="7" rx="1"/><rect width="2" height="2" x="4" y="4" rx="1"/><rect width="2" height="2" x="7" y="4" rx="1"/><rect width="2" height="2" x="10" y="4" rx="1"/></svg>