<svg xmlns="http://www.w3.org/2000/svg" width="16" height="16" fill="context-fill" viewBox="0 0 16 16"><path d="M10 12H8V10H10V12Z"/><path d="M13 12H11V10H13V12Z"/><path fill-rule="evenodd" clip-rule="evenodd" d="M12 1C12.5523 1 13 1.44772 13 2V7C14.6569 7 16 8.34315 16 10V12C16 13.6569 14.6569 15 13 15H3C1.34315 15 0 13.6569 0 12V10C0 8.34315 1.34315 7 3 7H11V2C11 1.44772 11.4477 1 12 1ZM3 9C2.44772 9 2 9.44772 2 10V12C2 12.5523 2.44772 13 3 13H13C13.5523 13 14 12.5523 14 12V10C14 9.44772 13.5523 9 13 9H3Z"/><path d="M6 4.5C6.19698 4.5 6.39223 4.53888 6.57422 4.61426C6.75613 4.68964 6.92131 4.80021 7.06055 4.93945L6 6L4.93945 4.93945C5.07869 4.80021 5.24387 4.68964 5.42578 4.61426C5.60777 4.53888 5.80302 4.5 6 4.5Z"/><path d="M6 1C6.65654 1 7.30651 1.12964 7.91309 1.38086C8.51971 1.63213 9.07086 2.00055 9.53516 2.46484L8.47461 3.52539L8.35059 3.40625C8.05329 3.13683 7.71128 2.92052 7.33984 2.7666C6.9152 2.59071 6.45963 2.5 6 2.5C5.54037 2.5 5.0848 2.59071 4.66016 2.7666C4.23569 2.94249 3.85028 3.2005 3.52539 3.52539L2.46484 2.46484C2.92914 2.00055 3.48029 1.63213 4.08691 1.38086C4.69349 1.12964 5.34346 1 6 1Z"/></svg>