<svg width="340" height="20" viewBox="0 0 340 20" fill="none" xmlns="http://www.w3.org/2000/svg">
<g clip-path="url(#clip0_6_319)">
<path d="M9.29301 14.706C9.48054 14.8935 9.73485 14.9988 10 14.9988C10.2652 14.9988 10.5195 14.8935 10.707 14.706L15.707 9.706C15.8847 9.51655 15.9816 9.26541 15.9774 9.00573C15.9732 8.74605 15.8681 8.49819 15.6844 8.31461C15.5007 8.13103 15.2528 8.02612 14.9931 8.02209C14.7334 8.01805 14.4823 8.11521 14.293 8.293L11 11.586V3C11 2.73478 10.8947 2.48043 10.7071 2.29289C10.5196 2.10536 10.2652 2 10 2C9.73479 2 9.48044 2.10536 9.2929 2.29289C9.10537 2.48043 9.00001 2.73478 9.00001 3V11.586L5.70701 8.293C5.51769 8.11521 5.26662 8.01805 5.00693 8.02209C4.74725 8.02612 4.49932 8.13103 4.3156 8.31461C4.13189 8.49819 4.02681 8.74605 4.02259 9.00573C4.01838 9.26541 4.11536 9.51655 4.29301 9.706L9.29301 14.706V14.706Z" fill="context-stroke"/>
<path d="M15 15.981C15.2652 15.981 15.5196 16.0864 15.7071 16.2739C15.8946 16.4614 16 16.7158 16 16.981C16 17.2462 15.8946 17.5006 15.7071 17.6881C15.5196 17.8757 15.2652 17.981 15 17.981H5C4.73478 17.981 4.48043 17.8757 4.29289 17.6881C4.10536 17.5006 4 17.2462 4 16.981C4 16.7158 4.10536 16.4614 4.29289 16.2739C4.48043 16.0864 4.73478 15.981 5 15.981H15Z" fill="context-stroke"/>
<path d="M29.0699 14.1777C29.2503 14.3574 29.4949 14.4583 29.75 14.4583C30.0051 14.4583 30.2497 14.3574 30.4301 14.1777L35.2397 9.38561C35.4106 9.20403 35.5039 8.96334 35.4999 8.71445C35.4958 8.46557 35.3947 8.22802 35.218 8.05207C35.0413 7.87612 34.8028 7.77557 34.553 7.77171C34.3032 7.76784 34.0617 7.86096 33.8796 8.03135L30.7119 11.1874V2.95842C30.7119 2.70423 30.6106 2.46045 30.4302 2.28072C30.2498 2.10098 30.0051 2 29.75 2C29.4949 2 29.2502 2.10098 29.0698 2.28072C28.8894 2.46045 28.7881 2.70423 28.7881 2.95842V11.1874L25.6204 8.03135C25.4383 7.86096 25.1968 7.76784 24.947 7.77171C24.6972 7.77557 24.4587 7.87612 24.282 8.05207C24.1053 8.22802 24.0042 8.46557 24.0001 8.71445C23.9961 8.96334 24.0894 9.20403 24.2603 9.38561L29.0699 14.1777V14.1777Z" fill="context-stroke"/>
<path d="M34.5417 16C34.7958 16 35.0396 16.1054 35.2193 16.2929C35.399 16.4804 35.5 16.7348 35.5 17C35.5 17.2652 35.399 17.5196 35.2193 17.7071C35.0396 17.8946 34.7958 18 34.5417 18H24.9583C24.7042 18 24.4604 17.8946 24.2807 17.7071C24.101 17.5196 24 17.2652 24 17C24 16.7348 24.101 16.4804 24.2807 16.2929C24.4604 16.1054 24.7042 16 24.9583 16H34.5417Z" fill="context-stroke"/>
<path d="M48.8719 13.6909C49.0445 13.8634 49.2785 13.9603 49.5225 13.9603C49.7664 13.9603 50.0004 13.8634 50.173 13.6909L54.7735 9.09036C54.937 8.91605 55.0262 8.68497 55.0223 8.44604C55.0185 8.2071 54.9218 7.97905 54.7527 7.81013C54.5837 7.64122 54.3556 7.54469 54.1166 7.54098C53.8777 7.53727 53.6467 7.62666 53.4725 7.79025L50.4426 10.8202V2.92011C50.4426 2.67608 50.3456 2.44205 50.1731 2.26949C50.0005 2.09694 49.7665 2 49.5225 2C49.2784 2 49.0444 2.09694 48.8718 2.26949C48.6993 2.44205 48.6024 2.67608 48.6024 2.92011V10.8202L45.5724 7.79025C45.3982 7.62666 45.1672 7.53727 44.9283 7.54098C44.6893 7.54469 44.4612 7.64122 44.2922 7.81013C44.1231 7.97905 44.0265 8.2071 44.0226 8.44604C44.0187 8.68497 44.1079 8.91605 44.2714 9.09036L48.8719 13.6909V13.6909Z" fill="context-stroke"/>
<path d="M53.1667 16C53.3877 16 53.5996 16.1054 53.7559 16.2929C53.9122 16.4804 54 16.7348 54 17C54 17.2652 53.9122 17.5196 53.7559 17.7071C53.5996 17.8946 53.3877 18 53.1667 18H44.8333C44.6123 18 44.4004 17.8946 44.2441 17.7071C44.0878 17.5196 44 17.2652 44 17C44 16.7348 44.0878 16.4804 44.2441 16.2929C44.4004 16.1054 44.6123 16 44.8333 16H53.1667Z" fill="context-stroke"/>
<path d="M69.5269 12.8223C69.6524 12.9525 69.8226 13.0256 70 13.0256C70.1774 13.0256 70.3476 12.9525 70.4731 12.8223L73.819 9.35062C73.9378 9.21908 74.0027 9.0447 73.9999 8.86439C73.9971 8.68408 73.9268 8.51199 73.8038 8.38452C73.6809 8.25705 73.515 8.18421 73.3412 8.18141C73.1674 8.1786 72.9994 8.24607 72.8727 8.36951L70.6692 10.656V4.69434C70.6692 4.51019 70.5987 4.33358 70.4732 4.20337C70.3477 4.07315 70.1775 4 70 4C69.8225 4 69.6523 4.07315 69.5268 4.20337C69.4013 4.33358 69.3308 4.51019 69.3308 4.69434V10.656L67.1273 8.36951C67.0006 8.24607 66.8326 8.1786 66.6588 8.18141C66.485 8.18421 66.3191 8.25705 66.1962 8.38452C66.0732 8.51199 66.0029 8.68408 66.0001 8.86439C65.9973 9.0447 66.0622 9.21908 66.181 9.35062L69.5269 12.8223V12.8223Z" fill="context-stroke"/>
<path d="M71.7917 16C71.9795 16 72.1597 16.1054 72.2925 16.2929C72.4254 16.4804 72.5 16.7348 72.5 17C72.5 17.2652 72.4254 17.5196 72.2925 17.7071C72.1597 17.8946 71.9795 18 71.7917 18H64.7083C64.5205 18 64.3403 17.8946 64.2075 17.7071C64.0746 17.5196 64 17.2652 64 17C64 16.7348 64.0746 16.4804 64.2075 16.2929C64.3403 16.1054 64.5205 16 64.7083 16H71.7917Z" fill="context-stroke"/>
<path d="M88.6452 11.8769C88.7393 11.9709 88.8669 12.0238 89 12.0238C89.1331 12.0238 89.2607 11.9709 89.3548 11.8769L91.8642 9.36747C91.9534 9.27239 92.002 9.14635 91.9999 9.01602C91.9978 8.88569 91.9451 8.7613 91.8529 8.66916C91.7607 8.57703 91.6362 8.52438 91.5059 8.52235C91.3756 8.52033 91.2496 8.56909 91.1546 8.65832L89.5019 10.311V6.00188C89.5019 5.86877 89.449 5.74112 89.3549 5.647C89.2608 5.55288 89.1331 5.5 89 5.5C88.8669 5.5 88.7392 5.55288 88.6451 5.647C88.551 5.74112 88.4981 5.86877 88.4981 6.00188V10.311L86.8454 8.65832C86.7504 8.56909 86.6244 8.52033 86.4941 8.52235C86.3638 8.52438 86.2393 8.57703 86.1471 8.66916C86.0549 8.7613 86.0022 8.88569 86.0001 9.01602C85.9979 9.14635 86.0466 9.27239 86.1358 9.36747L88.6452 11.8769V11.8769Z" fill="context-stroke"/>
<path d="M88.5833 16C88.6938 16 88.7998 16.1054 88.878 16.2929C88.9561 16.4804 89 16.7348 89 17C89 17.2652 88.9561 17.5196 88.878 17.7071C88.7998 17.8946 88.6938 18 88.5833 18H84.4167C84.3062 18 84.2002 17.8946 84.122 17.7071C84.0439 17.5196 84 17.2652 84 17C84 16.7348 84.0439 16.4804 84.122 16.2929C84.2002 16.1054 84.3062 16 84.4167 16H88.5833Z" fill="context-stroke"/>
<path d="M87.9294 17.7274C86.573 17.3639 85.3361 16.6498 84.3431 15.6569" stroke="context-fill" stroke-width="2" stroke-linecap="round" stroke-linejoin="round"/>
<path opacity="0.75" d="M109.631 10.9324C109.689 10.9904 109.768 11.023 109.85 11.023C109.932 11.023 110.011 10.9904 110.069 10.9324L111.616 9.38494C111.671 9.32631 111.701 9.24858 111.7 9.16821C111.699 9.08784 111.666 9.01113 111.609 8.95432C111.552 8.8975 111.476 8.86503 111.395 8.86378C111.315 8.86254 111.237 8.8926 111.179 8.94763L110.159 9.96678V7.30949C110.159 7.22741 110.127 7.14869 110.069 7.09065C110.011 7.03261 109.932 7 109.85 7C109.768 7 109.689 7.03261 109.631 7.09065C109.573 7.14869 109.541 7.22741 109.541 7.30949V9.96678L108.521 8.94763C108.463 8.8926 108.385 8.86254 108.305 8.86378C108.224 8.86503 108.148 8.8975 108.091 8.95432C108.034 9.01113 108.001 9.08784 108 9.16821C107.999 9.24858 108.029 9.32631 108.084 9.38494L109.631 10.9324V10.9324Z" fill="context-stroke"/>
<path d="M105.833 16C105.878 16 105.92 16.1054 105.951 16.2929C105.982 16.4804 106 16.7348 106 17C106 17.2652 105.982 17.5196 105.951 17.7071C105.92 17.8946 105.878 18 105.833 18H104.167C104.122 18 104.08 17.8946 104.049 17.7071C104.018 17.5196 104 17.2652 104 17C104 16.7348 104.018 16.4804 104.049 16.2929C104.08 16.1054 104.122 16 104.167 16H105.833Z" fill="context-stroke"/>
<path d="M107.929 17.7274C105.88 17.1783 104.133 15.8375 103.072 14" stroke="context-fill" stroke-width="2" stroke-linecap="round" stroke-linejoin="round"/>
<path opacity="0.46" d="M129.882 10.1256C129.913 10.157 129.956 10.1746 130 10.1746C130.044 10.1746 130.087 10.157 130.118 10.1256L130.955 9.28916C130.984 9.25746 131.001 9.21545 131 9.17201C130.999 9.12856 130.982 9.0871 130.951 9.05639C130.92 9.02568 130.879 9.00813 130.835 9.00745C130.792 9.00678 130.75 9.02303 130.718 9.05277L130.167 9.60367V8.16729C130.167 8.12292 130.15 8.08037 130.118 8.049C130.087 8.01763 130.044 8 130 8C129.956 8 129.913 8.01763 129.882 8.049C129.85 8.08037 129.833 8.12292 129.833 8.16729V9.60367L129.282 9.05277C129.25 9.02303 129.208 9.00678 129.165 9.00745C129.121 9.00813 129.08 9.02568 129.049 9.05639C129.018 9.0871 129.001 9.12856 129 9.17201C128.999 9.21545 129.016 9.25746 129.045 9.28916L129.882 10.1256V10.1256Z" fill="context-stroke"/>
<path d="M127.929 17.7274C126.744 17.4098 125.648 16.8238 124.725 16.0147C123.803 15.2056 123.079 14.1952 122.609 13.0615C122.139 11.9278 121.937 10.7012 122.017 9.47678C122.097 8.2523 122.458 7.0627 123.072 6" stroke="context-fill" stroke-width="2" stroke-linecap="round" stroke-linejoin="round"/>
<path opacity="0.13" d="M150.441 9.97748C150.457 9.9919 150.478 10 150.5 10C150.522 10 150.543 9.9919 150.559 9.97748L150.977 9.59282C150.992 9.57825 151 9.55893 151 9.53895C151 9.51898 150.991 9.49991 150.975 9.48578C150.96 9.47166 150.939 9.46359 150.918 9.46328C150.896 9.46297 150.875 9.47044 150.859 9.48412L150.584 9.73745V9.07693C150.584 9.05653 150.575 9.03696 150.559 9.02253C150.543 9.00811 150.522 9 150.5 9C150.478 9 150.457 9.00811 150.441 9.02253C150.425 9.03696 150.416 9.05653 150.416 9.07693V9.73745L150.141 9.48412C150.125 9.47044 150.104 9.46297 150.082 9.46328C150.061 9.46359 150.04 9.47166 150.025 9.48578C150.009 9.49991 150 9.51898 150 9.53895C150 9.55893 150.008 9.57825 150.023 9.59282L150.441 9.97748V9.97748Z" fill="context-stroke"/>
<path d="M147.929 17.7274C146.659 17.3869 145.491 16.7383 144.531 15.8389C143.571 14.9396 142.847 13.8173 142.425 12.5715C142.002 11.3257 141.893 9.99487 142.107 8.69684C142.321 7.3988 142.852 6.17365 143.653 5.12991C144.454 4.08617 145.5 3.25605 146.698 2.71309C147.897 2.17013 149.21 1.93108 150.523 2.01713C151.836 2.10317 153.107 2.51165 154.225 3.20638C155.342 3.90111 156.27 4.86065 156.928 6" stroke="context-fill" stroke-width="2" stroke-linecap="round" stroke-linejoin="round"/>
<path d="M167.929 17.7274C166.315 17.2948 164.876 16.3673 163.816 15.0751C162.755 13.783 162.126 12.1912 162.017 10.5232C161.908 8.85526 162.324 7.19494 163.206 5.77546C164.089 4.35598 165.394 3.24864 166.939 2.60896C168.483 1.96929 170.189 1.82942 171.817 2.20898C173.444 2.58855 174.913 3.4685 176.015 4.72523C177.117 5.98197 177.798 7.55236 177.961 9.21586C178.125 10.8794 177.764 12.5524 176.928 14" stroke="context-fill" stroke-width="2" stroke-linecap="round" stroke-linejoin="round"/>
<path d="M187.929 17.7274C186.055 17.2251 184.427 16.0583 183.348 14.4446C182.27 12.8308 181.815 10.8801 182.068 8.95579C182.322 7.03153 183.266 5.26498 184.725 3.98528C186.184 2.70558 188.059 2 190 2C191.941 2 193.816 2.70558 195.275 3.98528C196.734 5.26498 197.678 7.03153 197.932 8.95579C198.185 10.8801 197.73 12.8308 196.652 14.4446C195.573 16.0583 193.945 17.2251 192.071 17.7274" stroke="context-fill" stroke-width="2" stroke-linecap="round" stroke-linejoin="round"/>
<path d="M207.929 17.7274C205.977 17.2043 204.295 15.9616 203.222 14.2492C202.148 12.5367 201.763 10.4814 202.143 8.49629C202.522 6.51119 203.64 4.74345 205.27 3.54836C206.9 2.35328 208.921 1.81943 210.929 2.05411C212.936 2.2888 214.781 3.27462 216.091 4.81344C217.401 6.35226 218.081 8.33002 217.992 10.3492C217.904 12.3684 217.055 14.2794 215.615 15.6981C214.176 17.1167 212.253 17.9379 210.232 17.9966" stroke="context-fill" stroke-width="2" stroke-linecap="round" stroke-linejoin="round"/>
<path d="M227.929 17.7274C225.88 17.1783 224.133 15.8375 223.072 14C222.011 12.1625 221.723 9.97888 222.273 7.92945C222.822 5.88001 224.163 4.13266 226 3.0718C227.837 2.01093 230.021 1.72345 232.071 2.27259C234.12 2.82174 235.867 4.16253 236.928 6C237.989 7.83747 238.277 10.0211 237.727 12.0706C237.178 14.12 235.837 15.8673 234 16.9282C232.163 17.9891 229.979 18.2766 227.929 17.7274L227.929 17.7274Z" stroke="context-fill" stroke-width="2" stroke-linecap="round" stroke-linejoin="round"/>
<path d="M247.929 17.7274C245.88 17.1783 244.133 15.8375 243.072 14C242.011 12.1625 241.723 9.97888 242.273 7.92945C242.822 5.88001 244.163 4.13266 246 3.0718C247.837 2.01093 250.021 1.72345 252.071 2.27259C254.12 2.82174 255.867 4.16253 256.928 6C257.989 7.83747 258.277 10.0211 257.727 12.0706C257.178 14.12 255.837 15.8673 254 16.9282C252.163 17.9891 249.979 18.2766 247.929 17.7274L247.929 17.7274Z" stroke="context-fill" stroke-width="2" stroke-linecap="round" stroke-linejoin="round"/>
<path d="M267.929 17.7274C265.88 17.1783 264.133 15.8375 263.072 14C262.011 12.1625 261.723 9.97888 262.273 7.92945C262.822 5.88001 264.163 4.13266 266 3.0718C267.837 2.01093 270.021 1.72345 272.071 2.27259C274.12 2.82174 275.867 4.16253 276.928 6C277.989 7.83747 278.277 10.0211 277.727 12.0706C277.178 14.12 275.837 15.8673 274 16.9282C272.163 17.9891 269.979 18.2766 267.929 17.7274L267.929 17.7274Z" stroke="context-fill" stroke-width="2" stroke-linecap="round" stroke-linejoin="round"/>
<path d="M287.929 17.7274C285.88 17.1783 284.133 15.8375 283.072 14C282.011 12.1625 281.723 9.97888 282.273 7.92945C282.822 5.88001 284.163 4.13266 286 3.0718C287.837 2.01093 290.021 1.72345 292.071 2.27259C294.12 2.82174 295.867 4.16253 296.928 6C297.989 7.83747 298.277 10.0211 297.727 12.0706C297.178 14.12 295.837 15.8673 294 16.9282C292.163 17.9891 289.979 18.2766 287.929 17.7274L287.929 17.7274Z" stroke="context-fill" stroke-width="2" stroke-linecap="round" stroke-linejoin="round"/>
<path d="M307.929 17.7274C305.88 17.1783 304.133 15.8375 303.072 14C302.011 12.1625 301.723 9.97888 302.273 7.92945C302.822 5.88001 304.163 4.13266 306 3.0718C307.837 2.01093 310.021 1.72345 312.071 2.27259C314.12 2.82174 315.867 4.16253 316.928 6C317.989 7.83747 318.277 10.0211 317.727 12.0706C317.178 14.12 315.837 15.8673 314 16.9282C312.163 17.9891 309.979 18.2766 307.929 17.7274L307.929 17.7274Z" stroke="context-fill" stroke-width="2" stroke-linecap="round" stroke-linejoin="round"/>
<path d="M327.929 17.7274C325.88 17.1783 324.133 15.8375 323.072 14C322.011 12.1625 321.723 9.97888 322.273 7.92945C322.822 5.88001 324.163 4.13266 326 3.0718C327.837 2.01093 330.021 1.72345 332.071 2.27259C334.12 2.82174 335.867 4.16253 336.928 6C337.989 7.83747 338.277 10.0211 337.727 12.0706C337.178 14.12 335.837 15.8673 334 16.9282C332.163 17.9891 329.979 18.2766 327.929 17.7274L327.929 17.7274Z" stroke="context-fill" stroke-width="2" stroke-linecap="round" stroke-linejoin="round"/>
</g>
<defs>
<clipPath id="clip0_6_319">
<rect width="340" height="20" fill="white"/>
</clipPath>
</defs>
</svg>
