<svg width="540" height="20" viewBox="0 0 540 20" fill="none" xmlns="http://www.w3.org/2000/svg">
<g clip-path="url(#clip0_8_428)">
<circle cx="10" cy="10" r="8" stroke="context-fill" stroke-width="2" stroke-linejoin="round"/>
<circle cx="10" cy="10" r="6" fill="context-stroke"/>
<circle cx="30" cy="10" r="8" stroke="context-fill" stroke-width="2" stroke-linejoin="round"/>
<circle cx="30" cy="10" r="6" fill="context-stroke"/>
<circle cx="50" cy="10" r="8" stroke="context-fill" stroke-width="2" stroke-linejoin="round"/>
<circle cx="50" cy="10" r="6" fill="context-stroke"/>
<circle cx="70" cy="10" r="8" stroke="context-fill" stroke-width="2" stroke-linejoin="round"/>
<circle cx="70" cy="10" r="6" fill="context-stroke"/>
<circle cx="90" cy="10" r="8" stroke="context-fill" stroke-width="2" stroke-linejoin="round"/>
<circle cx="90" cy="10" r="6" fill="context-stroke"/>
<circle cx="110" cy="10" r="8" stroke="context-fill" stroke-width="2" stroke-linejoin="round"/>
<circle cx="110" cy="10" r="6" fill="context-stroke"/>
<circle cx="130" cy="10" r="8" stroke="context-fill" stroke-width="2" stroke-linejoin="round"/>
<circle cx="130" cy="10" r="6" fill="context-stroke"/>
<circle cx="150" cy="10" r="8" stroke="context-fill" stroke-width="2" stroke-linejoin="round"/>
<circle cx="150" cy="10" r="5.875" fill="context-stroke"/>
<circle cx="170" cy="10" r="8" stroke="context-fill" stroke-width="2" stroke-linejoin="round"/>
<circle cx="170" cy="10" r="5.5" fill="context-stroke"/>
<circle cx="190" cy="10" r="8" stroke="context-fill" stroke-width="2" stroke-linejoin="round"/>
<circle cx="190" cy="10" r="4" fill="context-stroke"/>
<circle cx="210" cy="10" r="8" stroke="context-fill" stroke-width="2" stroke-linejoin="round"/>
<circle cx="210" cy="10" r="2" fill="context-stroke"/>
<circle cx="230" cy="10" r="8" stroke="context-fill" stroke-width="2" stroke-linejoin="round"/>
<circle cx="230" cy="10" r="0.5" fill="context-stroke"/>
<circle cx="250" cy="10" r="8" stroke="context-fill" stroke-width="2" stroke-linejoin="round"/>
<circle cx="270" cy="10" r="8" stroke="context-fill" stroke-width="2" stroke-linejoin="round"/>
<circle cx="290" cy="10" r="8" stroke="context-fill" stroke-width="2" stroke-linejoin="round"/>
<path d="M286.25 9.5L288.5 11.75" stroke="context-fill" stroke-width="2" stroke-linecap="round"/>
<circle cx="310" cy="10" r="8" stroke="context-fill" stroke-width="2" stroke-linejoin="round"/>
<path d="M306.25 9.5L309.25 12.5L311 10.75" stroke="context-fill" stroke-width="2" stroke-linecap="round"/>
<circle cx="330" cy="10" r="8" stroke="context-fill" stroke-width="2" stroke-linejoin="round"/>
<path d="M326.25 9.5L329.25 12.5L333 8.75" stroke="context-fill" stroke-width="2" stroke-linecap="round"/>
<circle cx="350" cy="10" r="8" stroke="context-fill" stroke-width="2" stroke-linejoin="round"/>
<path d="M346.25 9.5L349.25 12.5L353.75 8" stroke="context-fill" stroke-width="2" stroke-linecap="round"/>
<circle cx="370" cy="10" r="8" stroke="context-fill" stroke-width="2" stroke-linejoin="round"/>
<path d="M366.25 9.5L369.25 12.5L373.75 8" stroke="context-fill" stroke-width="2" stroke-linecap="round"/>
<circle opacity="0.96" cx="390" cy="10" r="8" stroke="context-fill" stroke-width="2" stroke-linejoin="round"/>
<path d="M386.25 9.5L389.25 12.5L393.75 8" stroke="context-fill" stroke-width="2" stroke-linecap="round"/>
<circle opacity="0.76" cx="410" cy="10" r="8" stroke="context-fill" stroke-width="2" stroke-linejoin="round"/>
<path d="M408 11.25L409.25 12.5L413.75 8" stroke="context-fill" stroke-width="2" stroke-linecap="round"/>
<circle opacity="0.26" cx="430" cy="10" r="8" stroke="context-fill" stroke-width="2" stroke-linejoin="round"/>
<path d="M430.75 11L433.75 8" stroke="context-fill" stroke-width="2" stroke-linecap="round"/>
<path opacity="0.45" d="M429.704 11.3874C429.783 11.4595 429.889 11.5 430 11.5C430.111 11.5 430.217 11.4595 430.296 11.3874L432.387 9.46412C432.461 9.39125 432.502 9.29465 432.5 9.19476C432.498 9.09488 432.454 8.99954 432.377 8.92892C432.301 8.85831 432.197 8.81795 432.088 8.8164C431.98 8.81485 431.875 8.85222 431.795 8.92061L430.418 10.1873V6.88465C430.418 6.78264 430.374 6.6848 430.296 6.61266C430.217 6.54053 430.111 6.5 430 6.5C429.889 6.5 429.783 6.54053 429.704 6.61266C429.626 6.6848 429.582 6.78264 429.582 6.88465V10.1873L428.205 8.92061C428.125 8.85222 428.02 8.81485 427.912 8.8164C427.803 8.81795 427.699 8.85831 427.623 8.92892C427.546 8.99954 427.502 9.09488 427.5 9.19476C427.498 9.29465 427.539 9.39125 427.613 9.46412L429.704 11.3874V11.3874Z" fill="context-stroke"/>
<path opacity="0.45" d="M432.083 12C432.194 12 432.3 12.0527 432.378 12.1464C432.456 12.2402 432.5 12.3674 432.5 12.5C432.5 12.6326 432.456 12.7598 432.378 12.8536C432.3 12.9473 432.194 13 432.083 13H427.917C427.806 13 427.7 12.9473 427.622 12.8536C427.544 12.7598 427.5 12.6326 427.5 12.5C427.5 12.3674 427.544 12.2402 427.622 12.1464C427.7 12.0527 427.806 12 427.917 12H432.083Z" fill="context-stroke"/>
<circle opacity="0.05" cx="450" cy="10" r="8" stroke="context-fill" stroke-width="2" stroke-linejoin="round"/>
<path d="M453.5 8.25L453.75 8" stroke="context-fill" stroke-width="2" stroke-linecap="round"/>
<path opacity="0.78" d="M449.586 12.8198C449.696 12.9352 449.845 13 450 13C450.155 13 450.304 12.9352 450.414 12.8198L453.342 9.7426C453.446 9.626 453.502 9.47144 453.5 9.31162C453.497 9.1518 453.436 8.99926 453.328 8.88628C453.221 8.77329 453.076 8.70873 452.924 8.70625C452.772 8.70376 452.625 8.76356 452.514 8.87298L450.586 10.8996V5.61544C450.586 5.45222 450.524 5.29568 450.414 5.18026C450.304 5.06484 450.155 5 450 5C449.845 5 449.696 5.06484 449.586 5.18026C449.476 5.29568 449.414 5.45222 449.414 5.61544V10.8996L447.486 8.87298C447.375 8.76356 447.228 8.70376 447.076 8.70625C446.924 8.70873 446.779 8.77329 446.672 8.88628C446.564 8.99926 446.503 9.1518 446.5 9.31162C446.498 9.47144 446.554 9.626 446.658 9.7426L449.586 12.8198V12.8198Z" fill="context-stroke"/>
<path opacity="0.78" d="M452.917 14C453.071 14 453.22 14.0527 453.329 14.1464C453.439 14.2402 453.5 14.3674 453.5 14.5C453.5 14.6326 453.439 14.7598 453.329 14.8536C453.22 14.9473 453.071 15 452.917 15H447.083C446.929 15 446.78 14.9473 446.671 14.8536C446.561 14.7598 446.5 14.6326 446.5 14.5C446.5 14.3674 446.561 14.2402 446.671 14.1464C446.78 14.0527 446.929 14 447.083 14H452.917Z" fill="context-stroke"/>
<circle opacity="0.05" cx="470" cy="10" r="8" stroke="context-fill" stroke-width="2" stroke-linejoin="round"/>
<path d="M469.527 12.7973C469.652 12.9271 469.823 13 470 13C470.177 13 470.348 12.9271 470.473 12.7973L473.819 9.33542C473.938 9.20425 474.003 9.03037 474 8.85057C473.997 8.67078 473.927 8.49917 473.804 8.37206C473.681 8.24495 473.515 8.17232 473.341 8.16953C473.167 8.16673 472.999 8.234 472.873 8.3571L470.669 10.6371V4.69237C470.669 4.50874 470.599 4.33264 470.473 4.20279C470.348 4.07295 470.177 4 470 4C469.823 4 469.652 4.07295 469.527 4.20279C469.401 4.33264 469.331 4.50874 469.331 4.69237V10.6371L467.127 8.3571C467.001 8.234 466.833 8.16673 466.659 8.16953C466.485 8.17232 466.319 8.24495 466.196 8.37206C466.073 8.49917 466.003 8.67078 466 8.85057C465.997 9.03037 466.062 9.20425 466.181 9.33542L469.527 12.7973V12.7973Z" fill="context-stroke"/>
<path d="M473.75 14C473.949 14 474.14 14.079 474.28 14.2197C474.421 14.3603 474.5 14.5511 474.5 14.75C474.5 14.9489 474.421 15.1397 474.28 15.2803C474.14 15.421 473.949 15.5 473.75 15.5H466.25C466.051 15.5 465.86 15.421 465.72 15.2803C465.579 15.1397 465.5 14.9489 465.5 14.75C465.5 14.5511 465.579 14.3603 465.72 14.2197C465.86 14.079 466.051 14 466.25 14H473.75Z" fill="context-stroke"/>
<circle opacity="0.05" cx="490" cy="10" r="8" stroke="context-fill" stroke-width="2" stroke-linejoin="round"/>
<path d="M489.409 13.7522C489.565 13.9109 489.778 14 490 14C490.222 14 490.435 13.9109 490.591 13.7522L494.774 9.52107C494.922 9.36075 495.003 9.14823 495 8.92848C494.996 8.70873 494.908 8.49898 494.755 8.34363C494.601 8.18828 494.394 8.0995 494.177 8.09609C493.959 8.09267 493.749 8.17489 493.591 8.32534L490.836 11.112V3.84623C490.836 3.6218 490.748 3.40656 490.591 3.24786C490.435 3.08916 490.222 3 490 3C489.778 3 489.565 3.08916 489.409 3.24786C489.252 3.40656 489.164 3.6218 489.164 3.84623V11.112L486.409 8.32534C486.251 8.17489 486.041 8.09267 485.823 8.09609C485.606 8.0995 485.399 8.18828 485.245 8.34363C485.092 8.49898 485.004 8.70873 485 8.92848C484.997 9.14823 485.078 9.36075 485.226 9.52107L489.409 13.7522V13.7522Z" fill="context-stroke"/>
<path d="M494.167 15C494.388 15 494.6 15.0922 494.756 15.2563C494.912 15.4204 495 15.6429 495 15.875C495 16.1071 494.912 16.3296 494.756 16.4937C494.6 16.6578 494.388 16.75 494.167 16.75H485.833C485.612 16.75 485.4 16.6578 485.244 16.4937C485.088 16.3296 485 16.1071 485 15.875C485 15.6429 485.088 15.4204 485.244 15.2563C485.4 15.0922 485.612 15 485.833 15H494.167Z" fill="context-stroke"/>
<circle opacity="0.05" cx="510" cy="10" r="8" stroke="context-fill" stroke-width="2" stroke-linejoin="round"/>
<path d="M509.293 14.706C509.481 14.8935 509.735 14.9988 510 14.9988C510.265 14.9988 510.519 14.8935 510.707 14.706L515.707 9.706C515.885 9.51655 515.982 9.26541 515.977 9.00573C515.973 8.74605 515.868 8.49819 515.684 8.31461C515.501 8.13103 515.253 8.02612 514.993 8.02209C514.733 8.01805 514.482 8.11521 514.293 8.293L511 11.586V3C511 2.73478 510.895 2.48043 510.707 2.29289C510.52 2.10536 510.265 2 510 2C509.735 2 509.48 2.10536 509.293 2.29289C509.105 2.48043 509 2.73478 509 3V11.586L505.707 8.293C505.518 8.11521 505.267 8.01805 505.007 8.02209C504.747 8.02612 504.499 8.13103 504.316 8.31461C504.132 8.49819 504.027 8.74605 504.023 9.00573C504.018 9.26541 504.115 9.51655 504.293 9.706L509.293 14.706V14.706Z" fill="context-stroke"/>
<path d="M515 15.981C515.265 15.981 515.52 16.0864 515.707 16.2739C515.895 16.4614 516 16.7158 516 16.981C516 17.2462 515.895 17.5006 515.707 17.6881C515.52 17.8757 515.265 17.981 515 17.981H505C504.735 17.981 504.48 17.8757 504.293 17.6881C504.105 17.5006 504 17.2462 504 16.981C504 16.7158 504.105 16.4614 504.293 16.2739C504.48 16.0864 504.735 15.981 505 15.981H515Z" fill="context-stroke"/>
<circle opacity="0.05" cx="530" cy="10" r="8" stroke="context-fill" stroke-width="2" stroke-linejoin="round"/>
<path d="M529.293 14.706C529.481 14.8935 529.735 14.9988 530 14.9988C530.265 14.9988 530.519 14.8935 530.707 14.706L535.707 9.706C535.885 9.51655 535.982 9.26541 535.977 9.00573C535.973 8.74605 535.868 8.49819 535.684 8.31461C535.501 8.13103 535.253 8.02612 534.993 8.02209C534.733 8.01805 534.482 8.11521 534.293 8.293L531 11.586V3C531 2.73478 530.895 2.48043 530.707 2.29289C530.52 2.10536 530.265 2 530 2C529.735 2 529.48 2.10536 529.293 2.29289C529.105 2.48043 529 2.73478 529 3V11.586L525.707 8.293C525.518 8.11521 525.267 8.01805 525.007 8.02209C524.747 8.02612 524.499 8.13103 524.316 8.31461C524.132 8.49819 524.027 8.74605 524.023 9.00573C524.018 9.26541 524.115 9.51655 524.293 9.706L529.293 14.706V14.706Z" fill="context-stroke"/>
<path d="M535 15.981C535.265 15.981 535.52 16.0864 535.707 16.2739C535.895 16.4614 536 16.7158 536 16.981C536 17.2462 535.895 17.5006 535.707 17.6881C535.52 17.8757 535.265 17.981 535 17.981H525C524.735 17.981 524.48 17.8757 524.293 17.6881C524.105 17.5006 524 17.2462 524 16.981C524 16.7158 524.105 16.4614 524.293 16.2739C524.48 16.0864 524.735 15.981 525 15.981H535Z" fill="context-stroke"/>
</g>
<defs>
<clipPath id="clip0_8_428">
<rect width="540" height="20" fill="white"/>
</clipPath>
</defs>
</svg>
