<?xml version="1.0" encoding="UTF-8" standalone="no"?>
<!-- This Source Code Form is subject to the terms of the Mozilla Public
   - License, v. 2.0. If a copy of the MPL was not distributed with this
   - file, You can obtain one at http://mozilla.org/MPL/2.0/. -->

<svg xmlns="http://www.w3.org/2000/svg" width="16" height="16" fill="context-fill">
	<path d="M10 13H9C8.7239 13 8.47383 12.8882 8.29281 12.7072L7 14L8 15L10 13Z"/>
	<path d="M12 9V11L14 9L13 8L12 9Z"/>
	<path fill-rule="evenodd" clip-rule="evenodd" d="M12 7.962L10 10H9C8.448 10 8 10.447 8 11V12C8 12.2764 8.11192 12.5263 8.29281 12.7072C8.47383 12.8882 8.7239 13 9 13H10L12 11V9V7.962ZM12 12.5L10.75 13.75L12 15V12.5ZM16 4C16 2.346 14.654 1 13 1H3C1.346 1 0 2.346 0 4V12C0 13.654 1.346 15 3 15H5C5.552 15 6 14.553 6 14C6 13.447 5.552 13 5 13H3C2.449 13 2 12.552 2 12V4C2 3.448 2.449 3 3 3H13C13.551 3 14 3.448 14 4V6C14 6.553 14.448 7 15 7C15.552 7 16 6.553 16 6V4ZM3.854 4.146C3.658 3.951 3.342 3.951 3.146 4.146C2.951 4.342 2.951 4.658 3.146 4.854L5.293 7H4.5C4.224 7 4 7.224 4 7.5C4 7.776 4.224 8 4.5 8H6.5C6.565 8 6.63 7.986 6.691 7.962C6.813 7.911 6.911 7.813 6.961 7.691C6.987 7.63 7 7.565 7 7.5V5.5C7 5.224 6.776 5 6.5 5C6.224 5 6 5.224 6 5.5V6.293L3.854 4.146Z"/>
</svg>
