<?xml version="1.0" encoding="UTF-8" standalone="no"?>
<!-- This Source Code Form is subject to the terms of the Mozilla Public
   - License, v. 2.0. If a copy of the MPL was not distributed with this
   - file, You can obtain one at http://mozilla.org/MPL/2.0/. -->

<svg xmlns="http://www.w3.org/2000/svg" width="16" height="16" fill="context-fill">
  <path d="m 13,1 c 1.654,0 3,1.346 3,3 V 6 C 16,6.553 15.552,7 15,7 14.448,7 14,6.553 14,6 V 4 C 14,3.448 13.551,3 13,3 H 3 C 2.449,3 2,3.448 2,4 v 8 c 0,0.552 0.449,1 1,1 h 2 c 0.552,0 1,0.447 1,1 0,0.553 -0.448,1 -1,1 H 3 C 1.346,15 0,13.654 0,12 V 4 C 0,2.346 1.346,1 3,1 Z M 3.146,4.146 c 0.196,-0.195 0.512,-0.195 0.708,0 L 6,6.293 V 5.5 C 6,5.224 6.224,5 6.5,5 6.776,5 7,5.224 7,5.5 v 2 C 7,7.565 6.987,7.63 6.961,7.691 6.911,7.813 6.813,7.911 6.691,7.962 6.63,7.986 6.565,8 6.5,8 h -2 C 4.224,8 4,7.776 4,7.5 4,7.224 4.224,7 4.5,7 H 5.293 L 3.146,4.854 C 2.951,4.658 2.951,4.342 3.146,4.146 Z"/>
  <path transform="matrix(0.43408627,0,0,0.39490385,9.479706,8.3687064)" d="m -1.75835,4.3981749 c -0.9943763,0 -1.6572938,0.709259 -1.6572938,1.7731476 v 3.5462951 c 0,1.0638884 0.6629175,1.7731474 1.6572938,1.7731474 h 3.3145875 l 4.9718813,5.319443 V -0.9212677 L 1.5562375,4.3981749 Z m 9.9437626,0.8865738 v 5.3194423 c 1.325835,0 2.4859404,-1.2412029 2.4859404,-2.6597209 0,-1.418518 -1.1601054,-2.6597214 -2.4859404,-2.6597214 z m 3.1488584,-3.546295 -0.662918,1.5958328 c 1.491565,1.0638884 2.485941,2.6597212 2.485941,4.6101836 0,1.9504622 -0.994376,3.5462949 -2.320211,4.4328689 L 11.5,13.973172 c 1.988753,-1.241204 3.480317,-3.546295 3.480317,-6.2060167 0,-2.6597214 -1.491564,-4.7874984 -3.646046,-6.0287016 z"/>
</svg>
