<?xml version="1.0" encoding="UTF-8" standalone="no"?>
<!-- This Source Code Form is subject to the terms of the Mozilla Public
   - License, v. 2.0. If a copy of the MPL was not distributed with this
   - file, You can obtain one at http://mozilla.org/MPL/2.0/. -->

<svg xmlns="http://www.w3.org/2000/svg" width="16" height="16" fill="context-fill">
  <path d="m 13,1 c 1.654,0 3,1.346 3,3 V 6 C 16,6.553 15.552,7 15,7 14.448,7 14,6.553 14,6 V 4 C 14,3.448 13.551,3 13,3 H 3 C 2.449,3 2,3.448 2,4 v 8 c 0,0.552 0.449,1 1,1 h 2 c 0.552,0 1,0.447 1,1 0,0.553 -0.448,1 -1,1 H 3 C 1.346,15 0,13.654 0,12 V 4 C 0,2.346 1.346,1 3,1 Z M 3.146,4.146 c 0.196,-0.195 0.512,-0.195 0.708,0 L 6,6.293 V 5.5 C 6,5.224 6.224,5 6.5,5 6.776,5 7,5.224 7,5.5 v 2 C 7,7.565 6.987,7.63 6.961,7.691 6.911,7.813 6.813,7.911 6.691,7.962 6.63,7.986 6.565,8 6.5,8 h -2 C 4.224,8 4,7.776 4,7.5 4,7.224 4.224,7 4.5,7 H 5.293 L 3.146,4.854 C 2.951,4.658 2.951,4.342 3.146,4.146 Z"/>
  <path d="M 15.158568,8.3575249 13.054532,10.035951 V 8.007853 l -2.524841,2.098032 H 8.8464624 c -0.5049678,0 -0.841615,0.279737 -0.841615,0.699343 v 1.398688 c 0,0.419606 0.3366472,0.699343 0.841615,0.699343 h 0.7574523 l -2.1040351,1.74836 0.9257761,0.769279 7.5745253,-6.2940954 z m -2.104036,6.6437661 v -2.307834 l -1.430745,1.188884 z"/>
</svg>
