<?xml version="1.0" encoding="UTF-8" standalone="no"?>
<!-- This Source Code Form is subject to the terms of the Mozilla Public
   - License, v. 2.0. If a copy of the MPL was not distributed with this
   - file, You can obtain one at http://mozilla.org/MPL/2.0/. -->

<svg xmlns="http://www.w3.org/2000/svg" width="16" height="16" fill="context-fill">
	<path d="M9 10L11 7.962V15L9 13H8C7.448 13 7 12.553 7 12V11C7 10.447 7.448 10 8 10H9ZM13 1C14.654 1 16 2.346 16 4V6C16 6.553 15.552 7 15 7C14.448 7 14 6.553 14 6V4C14 3.448 13.551 3 13 3H3C2.449 3 2 3.448 2 4V12C2 12.552 2.449 13 3 13H5C5.552 13 6 13.447 6 14C6 14.553 5.552 15 5 15H3C1.346 15 0 13.654 0 12V4C0 2.346 1.346 1 3 1H13ZM3.146 4.146C3.342 3.951 3.658 3.951 3.854 4.146L6 6.293V5.5C6 5.224 6.224 5 6.5 5C6.776 5 7 5.224 7 5.5V7.5C7 7.565 6.987 7.63 6.961 7.691C6.911 7.813 6.813 7.911 6.691 7.962C6.63 7.986 6.565 8 6.5 8H4.5C4.224 8 4 7.776 4 7.5C4 7.224 4.224 7 4.5 7H5.293L3.146 4.854C2.951 4.658 2.951 4.342 3.146 4.146Z"/>
	<path d="M12 9.5C13.25 9.5 14 10.25 14 11.5C14 12.75 13.25 13.5 12 13.5V14.5C14 14.5 15 13 15 11.5C15 10 14 8.5 12 8.5V9.5Z"/>
	<path d="M12 10.5V12.5C12.5523 12.5 13 12 13 11.5C13 11 12.5 10.5 12 10.5Z"/>
</svg>
