<svg width="16" height="16" viewBox="0 0 16 16" fill="context-fill" xmlns="http://www.w3.org/2000/svg">
<g>
<path d="M4 6.5C4 6.22386 4.22386 6 4.5 6H11.5C11.7761 6 12 6.22386 12 6.5C12 6.77614 11.7761 7 11.5 7H4.5C4.22386 7 4 6.77614 4 6.5Z"/>
<path d="M4 4.5C4 4.22386 4.22386 4 4.5 4H11.5C11.7761 4 12 4.22386 12 4.5C12 4.77614 11.7761 5 11.5 5H4.5C4.22386 5 4 4.77614 4 4.5Z"/>
<path fill-rule="evenodd" clip-rule="evenodd" d="M0 3C0 1.34315 1.34315 0 3 0H13C14.6569 0 16 1.34315 16 3V13C16 14.6569 14.6569 16 13 16H3C1.34315 16 0 14.6569 0 13V3ZM13 2H3C2.44772 2 2 2.44772 2 3V9H6.5V9.49782L6.50021 9.5058C6.5005 9.51455 6.50116 9.5297 6.50264 9.55031C6.50559 9.59171 6.51175 9.65411 6.52445 9.7303C6.55024 9.88505 6.60089 10.0838 6.69721 10.2764C6.79256 10.4671 6.92772 10.6426 7.1211 10.7715C7.31135 10.8983 7.58749 11 8 11C8.41251 11 8.68865 10.8983 8.8789 10.7715C9.07228 10.6426 9.20744 10.4671 9.30279 10.2764C9.39911 10.0838 9.44976 9.88505 9.47555 9.7303C9.48825 9.65411 9.49441 9.59171 9.49736 9.55031C9.49884 9.5297 9.4995 9.51455 9.49979 9.5058L9.5 9.49782V9H14V3C14 2.44772 13.5523 2 13 2ZM2 13C2 13.5523 2.44772 14 3 14H13C13.5523 14 14 13.5523 14 13V10H10.4426C10.4009 10.2063 10.3276 10.4628 10.1972 10.7236C10.0426 11.0329 9.80272 11.3574 9.4336 11.6035C9.06135 11.8517 8.58749 12 8 12C7.41251 12 6.93865 11.8517 6.5664 11.6035C6.19728 11.3574 5.95744 11.0329 5.80279 10.7236C5.67236 10.4628 5.59908 10.2063 5.55745 10H2V13Z"/>
</g>
</svg>
