<svg xmlns="http://www.w3.org/2000/svg" viewBox="0 0 16 16" width="16" height="16" fill="context-fill"><path fill-rule="evenodd" d="M4 3a1 1 0 0 0-1 1v5a1 1 0 0 0 1 1h8a1 1 0 0 0 1-1V4a1 1 0 0 0-1-1H4ZM1 4a3 3 0 0 1 3-3h8a3 3 0 0 1 3 3v5a3 3 0 0 1-3 3H9v1h3a1 1 0 1 1 0 2H4a1 1 0 1 1 0-2h3v-1H4a3 3 0 0 1-3-3V4Z" clip-rule="evenodd"/><rect width="2" height="2" x="4" y="7" rx="1"/><rect width="2" height="2" x="10" y="7" rx="1"/><rect width="2" height="2" x="10" y="4" rx="1"/><rect width="2" height="2" x="7" y="7" rx="1"/><rect width="2" height="2" x="7" y="4" rx="1"/></svg>