<svg xmlns="http://www.w3.org/2000/svg" width="16" height="16" fill="context-fill" fill-opacity="context-fill-opacity"><g clip-path="url(#a)"><path fill-rule="evenodd" d="M8.7.265a1 1 0 0 0-1.4 0L5.806 1.728a1 1 0 0 1-.69.286l-2.091.021a1 1 0 0 0-.99.99l-.021 2.092a1 1 0 0 1-.286.689L.265 7.3a1 1 0 0 0 0 1.4l1.463 1.494a1 1 0 0 1 .286.69l.021 2.091a1 1 0 0 0 .99.99l2.092.021a1 1 0 0 1 .689.286L7.3 15.735a1 1 0 0 0 1.4 0l1.494-1.463a1 1 0 0 1 .69-.286l2.091-.022a1 1 0 0 0 .99-.989l.021-2.092a1 1 0 0 1 .286-.689L15.735 8.7a1 1 0 0 0 0-1.4l-1.463-1.494a1 1 0 0 1-.286-.69l-.021-2.091a1 1 0 0 0-.99-.99l-2.092-.021a1 1 0 0 1-.689-.286L8.7.265Zm-.782 10.547 4.21-4.21-1.414-1.414L7.21 8.69 5.286 6.767 3.872 8.18l2.631 2.631.708.707.707-.707Z" clip-rule="evenodd"/></g><defs><clipPath id="a"><path fill="#fff" d="M0 0h16v16H0z"/></clipPath></defs></svg>