<!-- This Source Code Form is subject to the terms of the Mozilla Public
   - License, v. 2.0. If a copy of the MPL was not distributed with this
   - file, You can obtain one at http://mozilla.org/MPL/2.0/. -->
<svg xmlns="http://www.w3.org/2000/svg" width="16" height="16" viewBox="0 0 16 16" fill="context-fill" fill-opacity="context-fill-opacity">
  <path d="M13 5V0L8 7.00003L11 7V12L16 5.00003L13 5Z"/>
  <path d="M0 12V4C0 2.34315 1.34315 1 3 1H7.5C8.05229 1 8.5 1.44772 8.5 2C8.5 2.55228 8.05229 3 7.5 3H3C2.44772 3 2 3.44772 2 4V5H7.5C7.77614 5 8 5.22386 8 5.5C8 5.77614 7.77614 6 7.5 6H2V12C2 12.5523 2.44772 13 3 13H11.5C12.3284 13 13 12.3284 13 11.5V11C13 10.4477 13.4477 10 14 10C14.5523 10 15 10.4477 15 11V12.5C15 13.8807 13.8807 15 12.5 15H3C1.34315 15 0 13.6569 0 12Z"/>
</svg>
