<svg width="32" height="32" viewBox="0 0 32 32" fill="none" xmlns="http://www.w3.org/2000/svg">
<path d="M24.9445 16.9983C24.7394 18.8363 23.9715 20.5756 22.7337 21.9714C21.2736 23.6179 19.2609 24.6723 17.0761 24.9354C14.8913 25.1985 12.6858 24.6521 10.8765 23.3993C9.06733 22.1466 7.77978 20.2744 7.25733 18.1367C6.73488 15.999 7.01374 13.744 8.04119 11.798C9.06863 9.85195 10.7734 8.34979 12.8333 7.5755C14.8932 6.80122 17.1654 6.80845 19.2203 7.59585C20.7099 8.16664 22.0105 9.11872 23 10.3431V8C23 7.44772 23.4477 7 24 7C24.5523 7 25 7.44772 25 8V12C25 13.1046 24.1046 14 23 14H19C18.4477 14 18 13.5523 18 13C18 12.4477 18.4477 12 19 12H21.7498C21.7279 11.9743 21.707 11.9476 21.6871 11.9199C20.8934 10.8136 19.7894 9.95645 18.5044 9.4641C16.9063 8.85174 15.1393 8.84611 13.5373 9.44827C11.9353 10.0504 10.6095 11.2187 9.81043 12.7321C9.01139 14.2455 8.79452 15.9992 9.20083 17.6617C9.60714 19.3242 10.6085 20.7802 12.0155 21.7545C13.4225 22.7287 15.1377 23.1537 16.8369 22.9491C18.536 22.7445 20.1013 21.9244 21.2368 20.644C22.1498 19.6144 22.734 18.3447 22.928 16.997C23.0067 16.4501 23.4472 16 23.9997 16C24.5521 16 25.0058 16.4493 24.9445 16.9983Z" fill="context-fill"/>
<path d="M16.3984 15.3516C16.7474 15.3516 17.0573 15.418 17.3281 15.5508C17.6016 15.6836 17.8164 15.8789 17.9727 16.1367C18.1289 16.3945 18.207 16.7122 18.207 17.0898C18.207 17.5013 18.1211 17.8568 17.9492 18.1562C17.7799 18.4531 17.526 18.681 17.1875 18.8398C16.8516 18.9987 16.4323 19.0781 15.9297 19.0781C15.6302 19.0781 15.3477 19.0521 15.082 19C14.819 18.9505 14.5885 18.8737 14.3906 18.7695V17.7266C14.5885 17.8307 14.8255 17.9193 15.1016 17.9922C15.3802 18.0625 15.6419 18.0977 15.8867 18.0977C16.1263 18.0977 16.3281 18.0664 16.4922 18.0039C16.6562 17.9388 16.7799 17.8398 16.8633 17.707C16.9492 17.5716 16.9922 17.3997 16.9922 17.1914C16.9922 16.9128 16.8984 16.6992 16.7109 16.5508C16.5234 16.4023 16.2357 16.3281 15.8477 16.3281C15.6992 16.3281 15.5443 16.3424 15.3828 16.3711C15.224 16.3997 15.0911 16.4284 14.9844 16.457L14.5039 16.1992L14.7188 13.2891H17.8164V14.3125H15.7773L15.6719 15.4336C15.7604 15.4154 15.8568 15.3971 15.9609 15.3789C16.0651 15.3607 16.2109 15.3516 16.3984 15.3516Z" fill="context-fill"/>
</svg>
