<svg width="32" height="32" viewBox="0 0 32 32" fill="none" xmlns="http://www.w3.org/2000/svg">
<path d="M7.05552 16.9983C7.26064 18.8363 8.02853 20.5756 9.26633 21.9714C10.7264 23.6179 12.7391 24.6723 14.9239 24.9354C17.1087 25.1985 19.3142 24.6521 21.1235 23.3993C22.9327 22.1466 24.2202 20.2744 24.7427 18.1367C25.2651 15.999 24.9863 13.744 23.9588 11.798C22.9314 9.85195 21.2266 8.34979 19.1667 7.5755C17.1068 6.80121 14.8346 6.80845 12.7797 7.59585C11.2901 8.16664 9.9895 9.11872 9 10.3431V8C9 7.44772 8.55228 7 8 7C7.44772 7 7 7.44772 7 8V12C7 13.1046 7.89543 14 9 14H13C13.5523 14 14 13.5523 14 13C14 12.4477 13.5523 12 13 12H10.2503C10.2721 11.9743 10.293 11.9476 10.3129 11.9199C11.1066 10.8136 12.2107 9.95645 13.4956 9.4641C15.0937 8.85173 16.8608 8.8461 18.4627 9.44827C20.0647 10.0504 21.3905 11.2187 22.1896 12.7321C22.9886 14.2455 23.2055 15.9992 22.7992 17.6617C22.3929 19.3242 21.3916 20.7802 19.9845 21.7545C18.5775 22.7287 16.8623 23.1537 15.1631 22.9491C13.464 22.7445 11.8987 21.9244 10.7632 20.644C9.85025 19.6144 9.26599 18.3447 9.07205 16.997C8.99336 16.4501 8.55283 16 8.00035 16C7.44787 16 6.99425 16.4493 7.05552 16.9983Z" fill="context-fill"/>
<path d="M16.3984 15.3516C16.7474 15.3516 17.0573 15.418 17.3281 15.5508C17.6016 15.6836 17.8164 15.8789 17.9727 16.1367C18.1289 16.3945 18.207 16.7122 18.207 17.0898C18.207 17.5013 18.1211 17.8568 17.9492 18.1562C17.7799 18.4531 17.526 18.681 17.1875 18.8398C16.8516 18.9987 16.4323 19.0781 15.9297 19.0781C15.6302 19.0781 15.3477 19.0521 15.082 19C14.819 18.9505 14.5885 18.8737 14.3906 18.7695V17.7266C14.5885 17.8307 14.8255 17.9193 15.1016 17.9922C15.3802 18.0625 15.6419 18.0977 15.8867 18.0977C16.1263 18.0977 16.3281 18.0664 16.4922 18.0039C16.6562 17.9388 16.7799 17.8398 16.8633 17.707C16.9492 17.5716 16.9922 17.3997 16.9922 17.1914C16.9922 16.9128 16.8984 16.6992 16.7109 16.5508C16.5234 16.4023 16.2357 16.3281 15.8477 16.3281C15.6992 16.3281 15.5443 16.3424 15.3828 16.3711C15.224 16.3997 15.0911 16.4284 14.9844 16.457L14.5039 16.1992L14.7188 13.2891H17.8164V14.3125H15.7773L15.6719 15.4336C15.7604 15.4154 15.8568 15.3971 15.9609 15.3789C16.0651 15.3607 16.2109 15.3516 16.3984 15.3516Z" fill="context-fill"/>
</svg>
