<svg xmlns="http://www.w3.org/2000/svg" width="16" height="16" fill="context-fill" fill-opacity="context-fill-opacity"><path fill-rule="evenodd" d="m3 8.672 5 5L11.672 10l-5-5H3v3.672ZM1 4v5.086a1 1 0 0 0 .293.707l5.293 5.293a2 2 0 0 0 2.828 0l3.672-3.672a2 2 0 0 0 0-2.828L7.793 3.293A1 1 0 0 0 7.086 3H2a1 1 0 0 0-1 1Z" clip-rule="evenodd"/><path fill-rule="evenodd" d="M2 2h5.672l6.414 6.414a2 2 0 0 0 0-2.828L8.793.293A1 1 0 0 0 8.086 0H3a1 1 0 0 0-1 1v1Z" clip-rule="evenodd"/><path d="M4 7a1 1 0 1 1 2 0 1 1 0 0 1-2 0Z"/></svg>