<svg xmlns="http://www.w3.org/2000/svg" width="16" height="16" fill="context-fill" viewBox="0 0 16 16"><g clip-path="url(#a)"><path d="M13 8a5 5 0 1 0-5 5v2A7 7 0 1 1 8 1a7 7 0 0 1 0 14v-2a5 5 0 0 0 5-5"/><path d="M11.18 1.766C13.3.36 14.983-.22 15.602.4c1.073 1.075-1.46 5.348-5.657 9.546-4.198 4.198-8.472 6.73-9.546 5.656-.62-.62-.04-2.302 1.367-4.42a7 7 0 0 0 1.26 1.744l-.055.094-.014.024.024-.014c1.546-.916 3.533-2.483 5.55-4.5 2.016-2.015 3.582-4.003 4.499-5.549l.012-.022-.022.013-.094.057a7 7 0 0 0-1.746-1.262"/></g><defs><clipPath id="a"><path d="M0 0h16v16H0z"/></clipPath></defs></svg>