<svg xmlns="http://www.w3.org/2000/svg" width="16" height="16" fill="context-fill" viewBox="0 0 16 16"><g clip-path="url(#a)"><path d="M11.184 1.764C13.3.36 14.983-.219 15.602.4c.617.62.04 2.3-1.365 4.418a7 7 0 0 0-.582-.944q.123-.195.234-.382c.489-.825.782-1.495.9-1.977.042-.168.053-.285.056-.36a2.3 2.3 0 0 0-.588.12c-.554.178-1.279.534-2.13 1.07a7 7 0 0 1 1.528 1.53 24 24 0 0 1-1.243 1.77A37 37 0 0 1 9.237 9.24a37 37 0 0 1-3.591 3.173c-.622.478-1.218.894-1.773 1.243a7 7 0 0 1-1.528-1.529c-.537.853-.894 1.577-1.07 2.131-.086.27-.116.463-.121.588.075-.003.192-.013.36-.055.481-.118 1.151-.411 1.976-.9q.188-.111.383-.235.447.327.944.58c-2.003 1.33-3.616 1.92-4.309 1.457l-.11-.09c-.58-.58-.107-2.097 1.113-4.03l.253-.388A7 7 0 0 1 8 1l.427.013a7 7 0 0 1 2.757.751"/><path d="M14.237 4.818a7 7 0 0 1-9.42 9.418 27 27 0 0 0 1.909-1.4 38 38 0 0 0 2.43-2.124l.789-.766a39 39 0 0 0 2.891-3.219c.529-.662.999-1.304 1.4-1.91"/></g><defs><clipPath id="a"><path d="M0 0h16v16H0z"/></clipPath></defs></svg>