<svg width="16" height="16" viewBox="0 0 16 16" fill="context-fill" xmlns="http://www.w3.org/2000/svg">
<g clip-path="url(#clip0_59_2)">
<path d="M11.8284 11.2426L11.1213 10.5355C10.7308 10.145 10.7308 9.51184 11.1213 9.12132C11.5118 8.7308 12.145 8.7308 12.5355 9.12132L13.2426 9.82843L13.9497 9.12132C14.3402 8.7308 14.9734 8.7308 15.3639 9.12132C15.7545 9.51184 15.7545 10.145 15.3639 10.5355L14.6568 11.2426L15.3639 11.9497C15.7545 12.3403 15.7545 12.9734 15.3639 13.364C14.9734 13.7545 14.3402 13.7545 13.9497 13.364L13.2426 12.6569L12.5355 13.364C12.145 13.7545 11.5118 13.7545 11.1213 13.364C10.7308 12.9734 10.7308 12.3403 11.1213 11.9497L11.8284 11.2426Z"/>
<path fill-rule="evenodd" clip-rule="evenodd" d="M14 7.9389V4C14 3.46957 13.7893 2.96086 13.4142 2.58579C13.0391 2.21071 12.5304 2 12 2H4C3.46957 2 2.96086 2.21071 2.58579 2.58579C2.21071 2.96086 2 3.46957 2 4V10H1C0.734784 10 0.48043 10.1054 0.292893 10.2929C0.105357 10.4804 0 10.7348 0 11C0 11.2652 0.105357 11.5196 0.292893 11.7071C0.48043 11.8946 0.734784 12 1 12H9.93887C10.0348 11.7234 10.1933 11.4636 10.4142 11.2427C9.63314 10.4616 9.63314 9.19529 10.4142 8.41424C11.1952 7.63319 12.4616 7.63319 13.2426 8.41424C13.4636 8.19329 13.7234 8.03485 14 7.9389Z"/>
</g>
</svg>
