<svg xmlns="http://www.w3.org/2000/svg" width="16" height="16" viewBox="0 0 16 16" fill="context-fill" ><path fill-rule="evenodd" d="M6.885 2a1.496 1.496 0 0 0 0 2H3a1 1 0 0 0-1 1v4h12V5a1 1 0 0 0-.275-.687 1.496 1.496 0 0 0 .609-1.998A3 3 0 0 1 16 5v6a3 3 0 0 1-3 3H3l-.154-.004A3 3 0 0 1 0 11V5a3 3 0 0 1 3-3zM2 11a1 1 0 0 0 1 1h10a1 1 0 0 0 1-1v-1H2z" clip-rule="evenodd"/><path d="M10.147.146a.5.5 0 0 1 .707 0l2.5 2.5a.5.5 0 1 1-.707.708L11 1.707V7.5a.5.5 0 0 1-1 0V1.707L8.354 3.354a.5.5 0 1 1-.708-.707z"/></svg>