<svg xmlns="http://www.w3.org/2000/svg" width="16" height="16" viewBox="0 0 16 16" fill="context-fill" ><path d="M4 3.884A1.499 1.499 0 0 0 1.94 6.06l.06.06V9h12V5a1 1 0 0 0-1-1H9.115q-.026-.03-.054-.06A1.5 1.5 0 0 0 7 3.883V2h6a3 3 0 0 1 3 3v6a3 3 0 0 1-3 3H3l-.154-.004A3 3 0 0 1 0 11V5a3 3 0 0 1 3-3h1zM2 11a1 1 0 0 0 1 1h10a1 1 0 0 0 1-1v-1H2zM5.5 0a.5.5 0 0 1 .5.5v5.793l1.646-1.647a.5.5 0 1 1 .708.708l-2.5 2.5a.5.5 0 0 1-.708 0l-2.5-2.5a.5.5 0 1 1 .708-.708L5 6.293V.5a.5.5 0 0 1 .5-.5"/></svg>