<!-- This Source Code Form is subject to the terms of the Mozilla Public
   - License, v. 2.0. If a copy of the MPL was not distributed with this
   - file, You can obtain one at http://mozilla.org/MPL/2.0/. -->
<svg xmlns="http://www.w3.org/2000/svg" height="16" width="16">
  <defs>
    <path id="a" d="M-4 -4.3c0 1.625 -0.049 2.76 0 3.3a7.57 7.57 0 0 0 1.487 4.382 4.22 4.22 0 0 0 2.513 1.605 4.218 4.218 0 0 0 2.512 -1.605 7.57 7.57 0 0 0 1.488 -4.382c0.049 -0.54 0 -1.675 0 -3.3l-4 -0.685 -4 0.685zm4 11.306l-0.112 -0.012a6.247 6.247 0 0 1 -4.012 -2.426 9.273 9.273 0 0 1 -1.8 -5.287c-0.076 -0.839 -0.076 -2.681 -0.076 -3.706a1.846 1.846 0 0 1 1.527 -1.822l4.473 -0.768 4.471 0.768a1.845 1.845 0 0 1 1.529 1.823c0 1.023 0 2.866 -0.08 3.705a9.266 9.266 0 0 1 -1.8 5.287 6.25 6.25 0 0 1 -4.012 2.426l-0.108 0.012z"/>
    <path id="b" d="M1.25 -3.451l-2.5 0.428c0.009 0.942 0.03 1.655 0.062 2a5.77 5.77 0 0 0 1.13 3.531 2.689 2.689 0 0 0 1.3 0.943h0.008v-6.902z"/>
    <linearGradient id="c" x1="-5.224" x2="-2.95" y1="-6.263" y2="10.923" gradientUnits="userSpaceOnUse" spreadMethod="pad">
      <stop offset="0%" stop-color="#C689FF"/>
      <stop offset="50%" stop-color="#639EF9"/>
      <stop offset="100%" stop-color="#00B3F4"/>
    </linearGradient>
  </defs>
  
  
  
  
  
  
  
  
  
  
  
  
  
  
  
  
  
  <svg width="16" height="16" y="0" preserveAspectRatio="xMidYMid meet" x="0">
    <defs>
      <mask id="s" mask-type="alpha">
        <g opacity="1">
          <path fill="red" fill-opacity="1" d="M-4.938 -3.875s-0.625 4.501 0.313 5.563c0.938 1.062 3.251 4.25 4.563 4.25 1.312 0 3.875 -3.064 4.687 -4.126 0.812 -1.062 0.375 -6.187 0.375 -6.187s-2.812 -1.563 -5 -1.563 -4.375 1.063 -4.375 1.063" transform="translate(8 8)"/>
          <path fill-opacity="0" stroke="#D60021" stroke-linecap="round" stroke-linejoin="round" stroke-opacity="1" stroke-width="3" d="M3.062 4.125s-0.625 4.501 0.313 5.563c0.938 1.062 3.251 4.25 4.563 4.25 1.312 0 3.875 -3.064 4.687 -4.126 0.812 -1.062 0.375 -6.187 0.375 -6.187s-2.812 -1.563 -5 -1.563 -4.375 1.063 -4.375 1.063"/>
        </g>
      </mask>
    </defs>
    <g opacity=".25">
      <use fill="#BABABA" fill-opacity="1" href="#a" opacity="1" transform="translate(8 8)"/>
    </g>
    <g opacity="1" transform="translate(6.75 7.988)">
      <use fill="#BABABA" fill-opacity="0" href="#b"/>
      <use fill="url(#c)" fill-opacity="1" href="#b"/>
    </g>
    <g mask="url(#s)">
      <use fill="url(#c)" fill-opacity="1" href="#a" opacity="1" transform="translate(8 8)"/>
    </g>
  </svg>
</svg>