<svg width="17" height="15" viewBox="0 0 17 15" fill="context-fill" xmlns="http://www.w3.org/2000/svg">
<path fill-rule="evenodd" clip-rule="evenodd" d="M4 1H0V3H7.04572C6.32975 4.77125 5.65354 6.02849 4.91804 6.98645C4.36226 6.21792 3.89751 5.31208 3.42965 4.13156L1.57035 4.86844C2.13005 6.2807 2.72384 7.42665 3.505 8.43585C2.71563 9.06685 1.78601 9.57371 0.605117 10.0813L1.39488 11.9187C2.73587 11.3424 3.87386 10.7255 4.87599 9.89881C5.80698 10.7287 6.9322 11.4752 8.33901 12.275L7.1279 15H9.31654L10.2054 13H13.7946L14.6835 15H16.8721L12.9138 6.09386C12.7533 5.73273 12.3952 5.5 12 5.5C11.6048 5.5 11.2467 5.73273 11.0862 6.09386L9.15547 10.438C7.93792 9.73731 7.02089 9.11725 6.28796 8.47754C7.38419 7.13745 8.28025 5.3959 9.19417 3H10V1H6V0H4V1ZM12.9057 11L12 8.96221L11.0943 11H12.9057Z"/>
</svg>
