<svg xmlns="http://www.w3.org/2000/svg" width="16" height="16" viewBox="0 0 16 16" fill="context-fill"><g clip-path="url(#clip0_186_2)"><path d="M7.26738 2.98023e-08H6V2H7.26738C6.91087 1.38322 6.91087 0.616784 7.26738 2.98023e-08Z"/><path d="M14 8.73262V10H16V8.73262C15.3832 9.08912 14.6168 9.08912 14 8.73262Z"/><path d="M2.65185 15.98C2.25418 15.9341 1.8802 15.8103 1.54551 15.6245C1.35327 15.5177 1.17398 15.3904 1.01062 15.2456C0.920179 15.1654 0.834615 15.0798 0.754432 14.9894C0.609599 14.826 0.482319 14.6467 0.375549 14.4545C0.189663 14.1198 0.0659418 13.7458 0.0199846 13.3481C0.00678471 13.2339 0 13.1178 0 13V12H2V13C2 13.2558 2.0934 13.4849 2.25097 13.6626L2.29159 13.7084L2.33741 13.749C2.51515 13.9066 2.74425 14 3 14H4V16H3C2.88224 16 2.76607 15.9932 2.65185 15.98Z"/><path d="M6 16H10V14H6V16Z"/><path d="M12 14V16H13C13.1178 16 13.2339 15.9932 13.3481 15.98C13.7458 15.9341 14.1198 15.8103 14.4545 15.6245C14.6467 15.5177 14.826 15.3904 14.9894 15.2456C15.0798 15.1654 15.1654 15.0798 15.2456 14.9894C15.3904 14.826 15.5177 14.6467 15.6245 14.4545C15.8103 14.1198 15.9341 13.7458 15.98 13.3481C15.9932 13.2339 16 13.1178 16 13V12H14V13C14 13.2558 13.9066 13.4849 13.749 13.6626L13.7084 13.7084L13.6626 13.749C13.4849 13.9066 13.2558 14 13 14H12Z"/><path d="M2 4V3C2 2.74425 2.0934 2.51515 2.25097 2.33741L2.29159 2.29159L2.33741 2.25097C2.51515 2.0934 2.74425 2 3 2H4V2.98023e-08H3C2.88224 2.98023e-08 2.76607 0.00678474 2.65185 0.0199846C2.25418 0.0659418 1.8802 0.189663 1.54551 0.375549C1.35327 0.482319 1.17398 0.609599 1.01062 0.754432C0.920179 0.834615 0.834616 0.920179 0.754433 1.01062C0.609599 1.17398 0.48232 1.35327 0.375549 1.54551C0.189663 1.8802 0.0659419 2.25418 0.0199846 2.65185C0.00678473 2.76607 0 2.88224 0 3V4H2Z"/><path d="M0 6H2V10H0V6Z"/><path fill-rule="evenodd" clip-rule="evenodd" d="M8.29289 0.292893C8.68342 -0.0976311 9.31658 -0.0976311 9.70711 0.292893L12 2.58579L14.2929 0.292893C14.6834 -0.0976311 15.3166 -0.0976311 15.7071 0.292893C16.0976 0.683417 16.0976 1.31658 15.7071 1.70711L13.4142 4L15.7071 6.29289C16.0976 6.68342 16.0976 7.31658 15.7071 7.70711C15.3166 8.09763 14.6834 8.09763 14.2929 7.70711L12 5.41421L9.70711 7.70711C9.31658 8.09763 8.68342 8.09763 8.29289 7.70711C7.90237 7.31658 7.90237 6.68342 8.29289 6.29289L10.5858 4L8.29289 1.70711C7.90237 1.31658 7.90237 0.683417 8.29289 0.292893Z"/><path d="M4 9H7V12H4V9Z"/><path d="M9 9H12V12H9V9Z"/><path d="M4 4H7V7H4V4Z"/></g></svg>