<svg xmlns="http://www.w3.org/2000/svg" width="16" height="16" viewBox="0 0 16 16" fill="context-fill" ><path  fill-rule="evenodd" d="M5.146 8.076c1.078-.299 2.433.28 2.433 1.739h.698c.898 0 1.445.487 1.64 1.08A4.002 4.002 0 0 0 9 3a4 4 0 0 0-3.854 5.076M11 7a2 2 0 1 1-4 0 2 2 0 0 1 4 0" clip-rule="evenodd"/><path  fill-rule="evenodd" d="M12 11.407c0-.868-.313-1.777-.99-2.48a3.607 3.607 0 0 0-1.923-1.035 3.628 3.628 0 0 0-.783-.951C7.54 6.28 6.59 6 5.713 6c-.878 0-1.829.281-2.591.94a3.626 3.626 0 0 0-.905 1.186 3.643 3.643 0 0 0-1.148.751A3.52 3.52 0 0 0 0 11.407a3.52 3.52 0 0 0 1.069 2.53c.73.71 1.715 1.063 2.777 1.063h4.431c1.064 0 2.033-.383 2.734-1.111.676-.704.989-1.613.989-2.482m-8.946-1.46c.057-.022.116-.04.177-.057l.023-.005a2.42 2.42 0 0 1 .592-.07c0-.213.03-.408.082-.583l.004-.013a1.628 1.628 0 0 1 .706-.919c.056-.036.115-.069.175-.098.277-.135.588-.202.9-.202.467 0 .933.152 1.283.454l.007.005a1.628 1.628 0 0 1 .468.692l.004.011c.067.194.104.411.104.653h.698c.03 0 .06 0 .088.002h.009c.197.008.376.04.538.092l.02.006c.26.087.472.226.637.398.287.298.431.696.431 1.095 0 .398-.144.796-.43 1.094-.287.298-.718.498-1.293.498h-4.43c-.616 0-1.078-.2-1.385-.498A1.52 1.52 0 0 1 2 11.408c0-.399.154-.797.462-1.095a1.67 1.67 0 0 1 .592-.367M9 0a.5.5 0 0 1 .5.5v1a.5.5 0 0 1-1 0v-1A.5.5 0 0 1 9 0m5 7a.5.5 0 0 1 .5-.5h1a.5.5 0 0 1 0 1h-1A.5.5 0 0 1 14 7" clip-rule="evenodd"/><path  d="M4.5 3a.5.5 0 1 1 1 0 .5.5 0 0 1-1 0M12.5 3a.5.5 0 1 1 1 0 .5.5 0 0 1-1 0M12.5 11a.5.5 0 1 1 1 0 .5.5 0 0 1-1 0"/></svg>