<svg width="54" height="42" viewBox="0 0 54 42" fill="none" xmlns="http://www.w3.org/2000/svg">
<g clip-path="url(#clip0_18_81)">
<rect width="54" height="42" fill="white"/>
<rect width="54" height="42" fill="white"/>
<path d="M22 3H10C9.44772 3 9 3.44772 9 4C9 4.55228 9.44772 5 10 5H22C22.5523 5 23 4.55228 23 4C23 3.44772 22.5523 3 22 3Z" fill="#333333"/>
<path d="M52 10C52 9.44772 51.5523 9 51 9C50.4477 9 50 9.44772 50 10C50 10.5523 50.4477 11 51 11C51.5523 11 52 10.5523 52 10Z" fill="#333333"/>
<path d="M4 10C4 9.44772 3.55228 9 3 9C2.44772 9 2 9.44772 2 10C2 10.5523 2.44772 11 3 11C3.55228 11 4 10.5523 4 10Z" fill="#333333"/>
<path d="M8 10C8 9.44772 7.55228 9 7 9C6.44772 9 6 9.44772 6 10C6 10.5523 6.44772 11 7 11C7.55228 11 8 10.5523 8 10Z" fill="#333333"/>
<path d="M47 9H11C10.4477 9 10 9.44772 10 10C10 10.5523 10.4477 11 11 11H47C47.5523 11 48 10.5523 48 10C48 9.44772 47.5523 9 47 9Z" fill="#333333"/>
<rect width="6" height="7" fill="#202340"/>
<rect x="26" width="28" height="7" fill="#202340"/>
<rect x="6" width="20" height="1" fill="#0A84FF"/>
<rect y="13" width="54" height="29" fill="#2A2A2E"/>
<path d="M30 36H5C4.44772 36 4 36.4477 4 37C4 37.5523 4.44772 38 5 38H30C30.5523 38 31 37.5523 31 37C31 36.4477 30.5523 36 30 36Z" fill="white"/>
<path d="M26 28H5C4.44772 28 4 28.4477 4 29C4 29.5523 4.44772 30 5 30H26C26.5523 30 27 29.5523 27 29C27 28.4477 26.5523 28 26 28Z" fill="white"/>
<path d="M16 32H5C4.44772 32 4 32.4477 4 33C4 33.5523 4.44772 34 5 34H16C16.5523 34 17 33.5523 17 33C17 32.4477 16.5523 32 16 32Z" fill="white"/>
</g>
<defs>
<clipPath id="clip0_18_81">
<rect width="54" height="42" fill="white"/>
</clipPath>
</defs>
</svg>
