<svg width="16" height="16" viewBox="0 0 16 16" fill="context-fill" xmlns="http://www.w3.org/2000/svg">
<g clip-path="url(#clip0_21_17)">
<path fill-rule="evenodd" clip-rule="evenodd" d="M13 2H3C2.44772 2 2 2.44772 2 3V13C2 13.5523 2.44772 14 3 14H13C13.5523 14 14 13.5523 14 13V3C14 2.44772 13.5523 2 13 2ZM3 0C1.34315 0 0 1.34315 0 3V13C0 14.6569 1.34315 16 3 16H13C14.6569 16 16 14.6569 16 13V3C16 1.34315 14.6569 0 13 0H3Z"/>
<path d="M3 3V6.5C3 6.77614 3.22386 7 3.5 7C3.77614 7 4 6.77614 4 6.5V4H6.5C6.77614 4 7 3.77614 7 3.5C7 3.22386 6.77614 3 6.5 3H3Z"/>
<path d="M3 3V6.5C3 6.77614 3.22386 7 3.5 7C3.77614 7 4 6.77614 4 6.5V4H6.5C6.77614 4 7 3.77614 7 3.5C7 3.22386 6.77614 3 6.5 3H3Z"/>
<path d="M3.5 9C3.22386 9 3 9.22386 3 9.5V13H6.5C6.77614 13 7 12.7761 7 12.5C7 12.2239 6.77614 12 6.5 12H4V9.5C4 9.22386 3.77614 9 3.5 9Z"/>
<path d="M9.5 3C9.22386 3 9 3.22386 9 3.5C9 3.77614 9.22386 4 9.5 4H12V6.5C12 6.77614 12.2239 7 12.5 7C12.7761 7 13 6.77614 13 6.5V3H9.5Z"/>
<path d="M12 9.5C12 9.22386 12.2239 9 12.5 9C12.7761 9 13 9.22386 13 9.5V13H9.5C9.22386 13 9 12.7761 9 12.5C9 12.2239 9.22386 12 9.5 12H12V9.5Z"/>
</g>
<defs>
<clipPath id="clip0_21_17">
<rect width="16" height="16"/>
</clipPath>
</defs>
</svg>
