<!-- This Source Code Form is subject to the terms of the Mozilla Public
   - License, v. 2.0. If a copy of the MPL was not distributed with this
   - file, You can obtain one at http://mozilla.org/MPL/2.0/. -->
<svg xmlns="http://www.w3.org/2000/svg" width="16" height="16" viewBox="0 0 16 16" fill="context-fill" fill-opacity="context-fill-opacity">
  <path d="M 3,0 C 1,0 0,1 0,3 v 10 c 0,2 1,3 3,3 h 10 c 2,0 3,-1 3,-3 V 3 C 16,1 15,0 13,0 Z m 0,2 h 10 c 0.552285,0 1,0.4477153 1,1 v 10 c 0,0.552285 -0.447715,1 -1,1 H 3 C 2.4477153,14 2,13.552285 2,13 V 3 C 2,2.4477153 2.4477153,2 3,2 Z M 4,3 C 3.5,3 3,3.5 3,4 v 2.5 c 0,0.6666664 1,0.6666664 1,0 V 4 H 6.5 C 7.1666664,4 7.1666664,3 6.5,3 Z M 9.5,3 C 8.8333336,3 8.8333336,4 9.5,4 H 12 v 2.5 c 0,0.6666664 1,0.6666664 1,0 V 4 C 13,3.5 12.5,3 12,3 Z m -6,6 C 3.2238576,9 3,9.2238576 3,9.5 V 12 c 0,0.5 0.5,1 1,1 h 2.5 c 0.6666664,0 0.6666664,-1 0,-1 H 4 V 9.5 C 4,9.2238576 3.7761424,9 3.5,9 Z m 9,0 C 12.223858,9 12,9.2238576 12,9.5 V 12 H 9.5 c -0.6666664,0 -0.6666664,1 0,1 H 12 c 0.5,0 1,-0.5 1,-1 V 9.5 C 13,9.2238576 12.776142,9 12.5,9 Z"/>
</svg>