<?xml version="1.0" encoding="UTF-8" standalone="no"?>
<!-- Created with Inkscape (http://www.inkscape.org/) -->

<svg
   xmlns:dc="http://purl.org/dc/elements/1.1/"
   xmlns:cc="http://creativecommons.org/ns#"
   xmlns:rdf="http://www.w3.org/1999/02/22-rdf-syntax-ns#"
   xmlns:svg="http://www.w3.org/2000/svg"
   xmlns="http://www.w3.org/2000/svg"
   xmlns:sodipodi="http://sodipodi.sourceforge.net/DTD/sodipodi-0.dtd"
   xmlns:inkscape="http://www.inkscape.org/namespaces/inkscape"
   id="svg2"
   version="1.1"
   inkscape:version="0.48.3.1 r9886"
   width="300"
   height="300"
   sodipodi:docname="Icecat1-300x300.svg">
  <metadata
     id="metadata8">
    <rdf:RDF>
      <cc:Work
         rdf:about="">
        <dc:format>image/svg+xml</dc:format>
        <dc:type
           rdf:resource="http://purl.org/dc/dcmitype/StillImage" />
        <dc:title></dc:title>
      </cc:Work>
    </rdf:RDF>
  </metadata>
  <defs
     id="defs6">
    <linearGradient
       id="linearGradient3716">
      <stop
         style="stop-color:#d4e3eb;stop-opacity:0.49803922;"
         offset="0"
         id="stop3718" />
      <stop
         id="stop3720"
         offset="1"
         style="stop-color:#d4e3eb;stop-opacity:0;" />
    </linearGradient>
    <linearGradient
       id="linearGradient3676">
      <stop
         id="stop3684"
         offset="0"
         style="stop-color:#d4e3eb;stop-opacity:0.49803922;" />
      <stop
         style="stop-color:#d4e3eb;stop-opacity:0;"
         offset="1"
         id="stop3680" />
    </linearGradient>
    <inkscape:perspective
       sodipodi:type="inkscape:persp3d"
       inkscape:vp_x="0 : 0.5 : 1"
       inkscape:vp_y="0 : 1000 : 0"
       inkscape:vp_z="1 : 0.5 : 1"
       inkscape:persp3d-origin="0.5 : 0.33333333 : 1"
       id="perspective10" />
  </defs>
  <sodipodi:namedview
     pagecolor="#ffffff"
     bordercolor="#666666"
     borderopacity="1"
     objecttolerance="10"
     gridtolerance="10"
     guidetolerance="10"
     inkscape:pageopacity="1"
     inkscape:pageshadow="2"
     inkscape:window-width="1678"
     inkscape:window-height="980"
     id="namedview4"
     showgrid="false"
     showguides="true"
     inkscape:guide-bbox="true"
     inkscape:zoom="1.0961539"
     inkscape:cx="47.347671"
     inkscape:cy="330.56612"
     inkscape:window-x="0"
     inkscape:window-y="0"
     inkscape:window-maximized="1"
     inkscape:current-layer="svg2" />
  <path
     style="fill:#000000;fill-opacity:1;stroke:none"
     d="m 134.51452,11.576619 c -4.27477,0.06823 -8.70147,0.354061 -13.3125,0.875 -56.098894,6.337874 -89.030274,53.048332 -90.937494,109.687501 -13.1299,25.73731 -16.98991,56.02612 -8.46875,85.65625 16.32089,56.75162 72.69659,91.05085 130.625004,84.25 l 10.625,-1.25 c 57.95586,3.82602 70.31644,-11.97861 84.1875,-50.5 1.45986,-3.18152 3.57425,-9.00622 6.65625,-18.40625 0.0794,-0.44233 0.18618,-0.9003 0.25,-1.125 9.2279,-25.16869 10.58007,-53.58406 2.8125,-80.59375 -0.93139,-3.23867 -2.00293,-6.40499 -3.1875,-9.5 -0.34698,-2.21803 -0.28272,-4.91286 0.10071,-7.01506 3.39073,-5.56009 7.59936,-9.74177 12.61804,-12.85994 l 3.1875,-21.937501 c 3.36132,-3.774853 2.07038,-7.024922 2.21875,-12.40625 1.95647,-0.922863 3.03101,-2.504251 3.84375,-5.03125 0.89557,-2.784497 5.23365,-8.050201 10.09375,-12.125 0.74976,-2.208099 2.61995,-6.708813 2.59375,-10.46875 -23.24911,2.6597 -37.86007,7.122799 -49.53125,-7.15625 l -6.21875,-2.4375 c -2.80566,-4.351808 -7.85597,-6.837766 -11.46875,-11.125 l -4.09375,14.1875 c -5.0466,-3.121537 -32.15144,-31.523828 -82.59376,-30.71875 z m 1.65625,9.3125 c 30.35278,0.428639 58.16134,15.75806 72.75001,26.71875 l -11.125,4.15625 -7,-4.46875 -3.15625,9.21875 0,3.8125 -8.59375,20.65625 -0.9375,-0.3125 4.4375,-18.4375 6.6875,-17.78125 -2.25,-1.90625 -9.84375,10.78125 c -2.09782,11.47521 -1.05084,27.644713 -6.34375,34.34375 1.64367,-13.477296 3.99369,-25.254164 4.125,-41 l -5.71875,-1.90625 c -1.32625,6.968697 -3.10422,14.947032 -4.46875,19.375 l 1.90625,-20 -7.28125,4.75 0,11.4375 -1.90625,-6.34375 -0.65625,-11.4375 -2.53125,-0.34375 -1.90625,7.3125 c 0.33215,3.177966 -0.17666,6.353284 2.53125,9.53125 l 0.65625,24.15625 1.5625,2.875 -2.84375,13.65625 0.3125,-13.34375 -0.9375,-0.9375 -1.90625,-23.53125 -3.1875,-12.71875 -5.09375,-3.15625 -1.90625,-5.40625 -5.40626,-0.34375 12.09376,43.25 0.9375,13 c -1.38504,-6.162086 -1.31928,-12.887437 -6.65625,-17.46875 0.52457,-6.471948 -0.41782,-12.804351 -8.28126,-18.4375 l -11.4375,-23.5 c -0.39015,-2.776624 -4.28806,-3.239983 -7,-4.46875 -0.81964,3.741065 -1.52923,7.523281 0.96875,12.09375 5.72034,9.085535 11.43591,18.230698 17.15625,23.1875 l 0.3125,11.125 c -1.88234,-10.251077 -7.04992,-15.784685 -8.90625,-14.28125 -0.0615,-8.363747 -9.25999,-11.492706 -14.59375,-16.84375 l -0.65625,-9.21875 -3.15625,-0.65625 c 1.98213,6.23459 -2.55729,6.67777 6.34375,19.0625 l 0.3125,4.46875 c -3.38984,-2.306711 -6.76642,-6.609124 -10.15625,-11.4375 l -4.124999,-7.3125 c 0.43832,5.009259 -2.049355,6.133236 1.562499,14.9375 5.33135,4.627998 10.13301,11.4208 16.21875,13.03125 0,0 1.27118,2.21875 0,2.21875 -1.27119,0 -3.8125,-0.96875 -3.8125,-0.96875 -3.51274,-1.605951 -6.85188,-3.039917 -13.656249,-7.9375 l -6.999995,-20.65625 -3.1875,-0.625 0.65625,11.125 2.84375,1.25 0.3125,7.3125 c 1.23767,4.342338 2.66231,6.061645 4.781245,5.40625 -1.185615,1.462681 -2.578225,1.773456 -5.406245,1.59375 -2.35147,-4.42083 -3.79214,-8.731208 -8.59375,-13.96875 l -3.15625,-9.21875 -1.90625,1.90625 c -0.69329,3.466911 -0.99036,7.128759 0,11.4375 -3.09773,-1.839939 -7.68837,-6.935041 -13.15625,-9.59375 17.94378,-20.815589 45.658884,-28.794106 67.437494,-29.1875 0.98407,-0.01778 1.95838,-0.04508 2.9375,-0.03125 z m 88.53126,25.65625 6.0625,2 17.75,10.125 25.15625,0.21875 c -7.213,2.828561 -16.1015,6.151889 -21.78125,7.875 l -7.1875,-0.21875 c -5.68561,-4.847265 -10.24845,-7.173675 -15.34375,-10.25 -6.17043,6.461884 -9.81448,12.107082 -11.84375,20.34375 l 1.78125,-13.9375 6.09375,-13.71875 z m -159.156254,3.875 6.40625,12.78125 0.3125,2.84375 -3.5,-1.25 -3.15625,-7.3125 -3.5,2.53125 -2.53125,-1.5 c 1.82847,-2.886746 3.83025,-5.585092 5.96875,-8.09375 z m 41.249994,27.0625 c 18.91134,-0.432864 21.90279,15.273405 24.9375,29.812501 l 0,26.0625 c 2.17052,0.21611 6.64396,13.30404 5.71875,17.46875 -0.53099,2.39022 5.72405,16.66944 5.28126,16.71875 3.36802,3.24843 2.74755,2.90434 5.4375,4.96875 3.7129,2.84947 7.06412,13.28487 5,14.8125 -1.96347,1.45313 2.58639,4.69843 3.65625,7.03125 6.63905,5.9322 11.57159,11.8803 11.46875,17.8125 l 3.15625,5.71875 6.03125,0.9375 1.59375,2.25 7.625,0.9375 c 4.38457,-0.94886 3.74409,-5.6812 5.09375,-8.90625 0.25544,-3.26033 -0.67284,-7.01777 -5.40625,-11.125 0.24872,-4.93736 0.86355,-9.80435 -3.8125,-15.5625 0.66575,-5.89586 -3.64164,-10.78396 -7,-15.875 -0.40538,-4.37404 -2.30267,-10.35338 -3.75,-16.15625 -0.71319,-2.85945 -1.04924,-5.82676 -1.625,-8.65625 -2.12459,-19.61528 0.67687,-21.82162 1.5625,-32.40625 7.24535,-10.89792 11.05149,-16.129749 17.5,-18.437501 l 8.25,10.187501 c 4.07199,7.40307 2.32727,16.89162 12.40625,18.75 l 0.25,0.25 c 5.15116,-4.64355 11.95851,-4.49395 17.51096,-4.63103 l -0.66721,2.19353 c -6.67693,-0.70697 -12.13558,-0.86991 -16.65625,2.53125 l 4.5,4.375 c 4.82605,-6.27392 11.49029,-5.84506 18.03125,-6.09375 l 0.0718,2.41776 c -7.07633,-0.93448 -13.84382,0.24885 -17.50932,4.23849 l 1.4375,1.375 0.0625,0 c 5.44611,-4.25379 11.97848,-4.49368 18.15625,-4.5625 l -1.22039,2.15515 c -6.20205,0.50511 -10.46616,0.0828 -14.90461,2.6886 3.43231,0.36408 6.87515,0.67213 10.3125,1 l 1.28125,2.84375 7.9375,0.65625 c 1.39566,0.35102 2.52137,0.50097 3.53125,0.53125 0.97436,2.5801 1.84882,5.20726 2.625,7.90625 5.89045,20.48249 5.87336,41.96615 0.6875,61.78125 -15.89872,42.66183 -32.79553,54.08419 -67.15625,51.78125 -35.86847,-2.40399 -64.82647,-42.26219 -90.343754,-96.875 -5.568067,-15.14768 -19.194105,-24.7439 -27.104166,-16.65406 -36.025826,35.82039 4.616175,99.5241 24.604166,114.90406 11.18835,8.09793 22.504964,14.55813 33.656244,19.5625 -39.620714,-6.59118 -73.496224,-34.15348 -84.937494,-73.9375 -13.79315,-47.96209 9.02369,-98.16681 52.59375,-122.187501 0.0432,-0.01595 0.11404,-0.04678 0.15625,-0.0625 8.14442,-3.032783 14.673574,-4.410048 19.968744,-4.53125 z M 226.6006,101.39734 c 3.43553,0.52308 9.82455,4.27728 13.32018,7.77303 1.04828,2.85572 -1.58562,4.1355 -1.40625,5.8125 0.0905,0.27955 0.0439,0.36867 0.0312,0.375 -0.0164,-0.12858 -0.018,-0.24935 -0.0312,-0.375 -0.27143,-0.83864 -4.91777,-6.55004 -11.91393,-13.58553 z m 21.14364,25.56853 c -0.0285,2.96216 -0.96862,3.98897 -2.25,5.5625 -1.30223,0.10192 -4.5669,-0.87995 -6,-2.9375 2.17376,-2.48662 5.49442,-2.46568 8.25,-2.625 z m -33.21875,2.0022 c -0.68831,0.82966 -1.00439,1.8399 -1.82346,3.5773 1.06993,-1.639 1.70956,-2.34752 2.42654,-2.8602 z m 1.65406,2.0625 c -2.63408,0.74201 -4.53094,4.90201 -7.16502,10.79605 2.81628,-3.47722 4.75811,-8.3988 8.71875,-9.96875 z m -138.790024,34.10855 0.625,12.375 -19.375,11.125 -0.3125,-9.21875 c 8.0728,2.10052 13.44571,-6.55775 19.0625,-14.28125 z m 8.59375,26.375 2.84375,7.3125 -24.46875,13.34375 -3.5,-8.28125 c 24.49949,-8.95397 20.28969,-8.89181 25.125,-12.375 z m 8.875,16.84375 3.187495,5.40625 c -9.218305,4.55288 -16.820045,10.69001 -23.499995,17.78125 l -5.09375,-10.15625 c 9.24403,-2.802 17.93055,-6.69858 25.40625,-13.03125 z m 11.781244,15.25 5.40625,5.09375 c -4.23878,9.49033 -12.979129,15.37909 -21.312494,21.59375 l -8.5625,-9.84375 c 8.40494,-5.49033 19.073624,-9.84851 24.468744,-16.84375 z m 18.03893,17.62007 c 0.84801,5.06775 -2.59155,12.58345 -14.22643,23.69243 -4.5281,-2.0397 -9.20604,-3.94491 -12.093749,-7.625 18.830609,-9.54423 23.670999,-14.68261 25.065789,-17.20779 0.50064,-0.0625 1.3136,0.37843 1.25439,1.14036 z m 11.83607,7.81743 c 0.43298,4.47829 -0.47484,9.71628 2.21876,12.6875 l 2.53125,0.65625 c -1.33003,5.50847 -3.99255,9.62311 -3.81251,15.13158 -10.04627,-2.43644 -11.15529,-3.47639 -14.9375,-5.91283 11.67864,-18.15355 13.90514,-22.4202 14,-22.5625 z m 16.50001,9.1875 12.40625,14.3125 c -1.24956,6.83679 -1.14153,10.92873 3.5,12.71601 -7.01523,-0.39144 -13.89918,-0.46602 -19.6875,-4.03125 5.03699,-7.46914 4.96033,-14.16195 3.78125,-22.99726 z m 62.4194,5.57237 c 3.60169,5.47937 4.08581,8.2713 7.6875,9.53125 -4.75009,4.60565 -6.88975,5.50605 -12.46875,7.625 1.74958,-3.5607 0.008,-8.54311 -1.5625,-14.59375 -1.17916,-2.24758 4.6794,-2.06211 6.34375,-2.5625 z m -35.07565,3.33388 c 20.93617,6.25 13.83456,10.2193 20.25932,16.4693 -5.52467,1.15716 -10.58957,2.3951 -19.40625,1.90625 6.50391,-4.8192 3.53072,-10.20629 -0.85307,-18.37555 z"
     id="path2850"
     inkscape:connector-curvature="0"
     sodipodi:nodetypes="sscscccccscccccsccccccssccccccccccccccccccccccccccccccccccccccccccccccccccccsccccccccccccccsscccccccccccccccccccsccscssccccccccccsccccccccccccccccccccccscsccccsccsccccccccccccccccccccccccccccccccccccccccccccccccccccccccccccccc" />
  <path
     inkscape:connector-curvature="0"
     style="fill:#000000;fill-opacity:1;stroke:#000000;stroke-width:1px;stroke-linecap:butt;stroke-linejoin:miter;stroke-opacity:1"
     d="m 220.65055,131.45874 0,0 z"
     id="path3698" />
</svg>
