<svg xmlns="http://www.w3.org/2000/svg" viewBox="0 0 300 300" width="300" height="300" fill-opacity="context-fill-opacity" fill="context-fill"><path d="M134.515 11.577a138 138 0 0 0-13.313.875C65.103 18.789 32.172 65.5 30.265 122.139c-13.13 25.737-16.99 56.026-8.47 85.656 16.322 56.752 72.697 91.051 130.626 84.25l10.625-1.25c57.956 3.826 70.316-11.978 84.187-50.5 1.46-3.181 3.575-9.006 6.657-18.406.079-.442.186-.9.25-1.125 9.227-25.169 10.58-53.584 2.812-80.594a117 117 0 0 0-3.187-9.5c-.347-2.218-.283-4.912.1-7.015 3.391-5.56 7.6-9.741 12.618-12.86l3.188-21.937c3.361-3.775 2.07-7.025 2.219-12.406 1.956-.923 3.03-2.505 3.843-5.032.896-2.784 5.234-8.05 10.094-12.125.75-2.208 2.62-6.708 2.594-10.468-23.25 2.66-37.86 7.122-49.531-7.157l-6.22-2.437c-2.805-4.352-7.855-6.838-11.468-11.125l-4.094 14.187c-5.046-3.121-32.151-31.523-82.593-30.718m1.656 9.312c30.353.429 58.161 15.758 72.75 26.719l-11.125 4.156-7-4.469-3.156 9.22v3.812l-8.594 20.656-.938-.313 4.438-18.437 6.687-17.781-2.25-1.907-9.843 10.782c-2.098 11.475-1.051 27.644-6.344 34.343 1.643-13.477 3.993-25.254 4.125-41l-5.719-1.906c-1.326 6.969-3.104 14.947-4.469 19.375l1.907-20-7.282 4.75v11.438l-1.906-6.344-.656-11.438-2.531-.343-1.907 7.312c.332 3.178-.176 6.353 2.532 9.531l.656 24.157 1.562 2.875-2.843 13.656.312-13.344-.937-.937-1.907-23.532-3.187-12.718-5.094-3.157-1.906-5.406-5.406-.344 12.093 43.25.938 13c-1.385-6.162-1.32-12.887-6.656-17.468.524-6.472-.418-12.805-8.282-18.438l-11.437-23.5c-.39-2.777-4.288-3.24-7-4.469-.82 3.741-1.53 7.524.969 12.094 5.72 9.086 11.435 18.23 17.156 23.188l.312 11.125c-1.882-10.251-7.05-15.785-8.906-14.282-.061-8.363-9.26-11.492-14.594-16.843l-.656-9.22-3.156-.655c1.982 6.234-2.558 6.677 6.344 19.062l.312 4.469c-3.39-2.307-6.766-6.61-10.156-11.438l-4.125-7.312c.438 5.01-2.05 6.133 1.562 14.937 5.332 4.628 10.133 11.421 16.219 13.032 0 0 1.271 2.218 0 2.218s-3.812-.968-3.812-.968c-3.513-1.606-6.852-3.04-13.657-7.938l-7-20.656-3.187-.625.656 11.125 2.844 1.25.312 7.312c1.238 4.343 2.663 6.062 4.782 5.407-1.186 1.462-2.579 1.773-5.407 1.593-2.351-4.42-3.792-8.73-8.593-13.968l-3.157-9.22-1.906 1.907c-.693 3.467-.99 7.129 0 11.438-3.098-1.84-7.688-6.935-13.156-9.594 17.944-20.816 45.659-28.794 67.437-29.188.984-.017 1.959-.045 2.938-.03m88.531 25.656 6.063 2 17.75 10.125 25.156.22c-7.213 2.828-16.102 6.151-21.781 7.874l-7.188-.219c-5.686-4.847-10.248-7.173-15.344-10.25-6.17 6.462-9.814 12.107-11.843 20.344l1.78-13.937 6.095-13.72zM65.546 50.42l6.406 12.782.313 2.843-3.5-1.25-3.157-7.312-3.5 2.531-2.531-1.5a71 71 0 0 1 5.969-8.094m41.25 27.063c18.911-.433 21.903 15.273 24.937 29.812v26.063c2.17.216 6.644 13.304 5.719 17.469-.531 2.39 5.724 16.67 5.281 16.718 3.368 3.249 2.748 2.905 5.438 4.97 3.713 2.849 7.064 13.284 5 14.812-1.964 1.453 2.586 4.698 3.656 7.03 6.64 5.933 11.572 11.881 11.469 17.813l3.156 5.72 6.031.937 1.594 2.25 7.625.937c4.385-.949 3.744-5.681 5.094-8.906.255-3.26-.673-7.018-5.406-11.125.248-4.937.863-9.804-3.813-15.563.666-5.895-3.642-10.784-7-15.875-.405-4.374-2.303-10.353-3.75-16.156-.713-2.86-1.05-5.827-1.625-8.656-2.125-19.615.677-21.822 1.563-32.406 7.245-10.898 11.051-16.13 17.5-18.438l8.25 10.188c4.072 7.403 2.327 16.891 12.406 18.75l.25.25c5.15-4.644 11.958-4.494 17.51-4.631l-.666 2.193c-6.677-.707-12.136-.87-16.657 2.531l4.5 4.375c4.826-6.274 11.49-5.845 18.032-6.093l.071 2.417c-7.076-.934-13.843.25-17.509 4.239l1.438 1.375h.062c5.446-4.254 11.978-4.494 18.156-4.563l-1.22 2.156c-6.202.505-10.466.082-14.905 2.688 3.433.364 6.875.672 10.313 1l1.281 2.844 7.938.656c1.395.351 2.52.501 3.53.531.975 2.58 1.85 5.208 2.626 7.907 5.89 20.482 5.873 41.966.687 61.78-15.898 42.663-32.795 54.085-67.156 51.782-35.868-2.404-64.826-42.262-90.344-96.875-5.568-15.148-19.194-24.744-27.104-16.654-36.026 35.82 4.616 99.524 24.604 114.904 11.189 8.098 22.505 14.558 33.656 19.563-39.62-6.592-73.496-34.154-84.937-73.938-13.793-47.962 9.024-98.167 52.594-122.187.043-.016.114-.047.156-.063 8.144-3.033 14.674-4.41 19.969-4.531M226.6 101.397c3.435.523 9.824 4.278 13.32 7.773 1.048 2.856-1.586 4.136-1.406 5.813.09.28.043.369.03.375-.016-.129-.017-.25-.03-.375-.272-.839-4.918-6.55-11.914-13.586m21.143 25.569c-.028 2.962-.968 3.989-2.25 5.562-1.302.102-4.567-.88-6-2.937 2.174-2.487 5.495-2.466 8.25-2.625m-33.219 2.002c-.688.83-1.004 1.84-1.823 3.577 1.07-1.639 1.71-2.347 2.427-2.86zm1.655 2.063c-2.635.742-4.531 4.902-7.165 10.796 2.816-3.478 4.758-8.4 8.718-9.97zM77.39 165.139l.625 12.375L58.64 188.64l-.313-9.219c8.073 2.1 13.446-6.557 19.063-14.28m8.593 26.375 2.844 7.313-24.469 13.343-3.5-8.28c24.5-8.955 20.29-8.893 25.125-12.376m8.875 16.844 3.188 5.406c-9.219 4.553-16.82 10.69-23.5 17.781l-5.094-10.156c9.244-2.802 17.93-6.698 25.406-13.031m11.782 15.25 5.406 5.094c-4.239 9.49-12.98 15.379-21.313 21.593l-8.562-9.843c8.405-5.49 19.073-9.849 24.469-16.844m18.038 17.62c.848 5.068-2.591 12.583-14.226 23.692-4.528-2.04-9.206-3.945-12.094-7.625 18.83-9.544 23.671-14.682 25.066-17.207.5-.063 1.314.378 1.254 1.14m11.837 7.817c.433 4.479-.475 9.717 2.218 12.688l2.532.656c-1.33 5.509-3.993 9.623-3.813 15.132-10.046-2.437-11.155-3.477-14.937-5.913 11.678-18.154 13.905-22.42 14-22.563m16.5 9.188 12.406 14.312c-1.25 6.837-1.142 10.93 3.5 12.716-7.015-.391-13.9-.466-19.688-4.03 5.037-7.47 4.96-14.163 3.782-22.998m62.419 5.572c3.602 5.48 4.086 8.272 7.687 9.531-4.75 4.606-6.89 5.507-12.468 7.625 1.75-3.56.008-8.543-1.563-14.593-1.179-2.248 4.68-2.062 6.344-2.563m-35.076 3.334c20.936 6.25 13.835 10.22 20.26 16.47-5.525 1.157-10.59 2.395-19.407 1.906 6.504-4.82 3.531-10.207-.853-18.376"/></svg>