<!-- (messy) Grayscale recreation of the Waterfox icon based on https://www.waterfox.net/_astro/waterfox-logo-dark.DraTzhjE.svg -->
<svg xmlns="http://www.w3.org/2000/svg" viewBox="0 0 512 512" fill-opacity="context-fill-opacity" width="512" height="512" fill="context-fill"><path d="M361.322 82.482c12.829 0 23.229-10.406 23.229-23.241 0-12.836-10.4-23.241-23.229-23.241-12.829 0-23.23 10.405-23.23 23.24 0 12.836 10.401 23.242 23.23 23.242ZM200.574 101.426a87.878 87.878 0 0 0 0 66.036c1.923 2.564 3.205 2.564 6.409-2.565 7.048-12.181 27.555-25.645 55.109-37.185 11.132-4.455 23.714-12.296 27.25-16.38 10.424-9.545 13.614-15.69 13.123-28.499a47.368 47.368 0 0 0-1.321-5.735c-4.869-16.335-18.467-28.048-40.332-26.321-14.739 1.923-28.197 8.975-39.09 19.234-10.392 9.377-14.987 16.456-21.148 31.415ZM151.232 212.34a51.287 51.287 0 0 1-17.943-19.234l-.953-2.477c-2.917-3.948-4.815-11.575-4.815-19.962.641-19.234 14.098-29.492 22.428-30.133 6.409-.641 11.535 0 15.379 4.488 4.487 4.488 5.127 6.411 5.127 12.181 0 5.129-1.281 9.617-3.844 15.387l-5.768 16.028-.077.505c-.067.434-.141.854-.217 1.26-.049.25-.099.495-.15.733a26.593 26.593 0 0 1-.719 2.685l-.117.588-.641 13.463c0 3.847-.642 7.053-1.282 7.053l-6.408-2.565Z"/><path d="M366.813 287.807c-3.906 8.865-5.732 13.009-7.958 13.009-2.904 0-37.542-66.552-37.542-66.552a592.911 592.911 0 0 1 8.065-10.383c1.266-1.348 3.614-3.257 6.002-5.15l1.353-1.071c2.447-1.933 4.723-3.731 5.673-4.754 2.833-2.27 5.54-4.751 8.118-7.618a835.107 835.107 0 0 1 25.632-23.721c3.494-2.997 6.599-6.382 9.317-9.853 2.036-2.059 2.892-3.324 2.858-6.176 0-4.488-2.562-8.975-8.971-15.386-14.097-13.464-40.371-17.311-68.566-10.9-16.416 3.709-38.084 13.547-49.452 21.555l-10.142 5.372a262.777 262.777 0 0 0-42.295 44.879c-6.408 8.976-16.022 25.004-53.189 89.758-.205.412-.427.725-.674.912-1.291.977-47.789-99.117-51.555-108.805-2.823-7.003-7.224-13.139-12.492-18.409l-.523-.521-.583-.577-.32-.314c-.259-.685-.816-1.473-1.778-2.435-.64-.641-4.485-3.205-7.048-3.847-6.266-4.387-10.254-5.8-13.095-6.531-1.488-.437-8.026-1.891-11.419-1.433-6.677.012-19.842 2.664-26.111 6.041C12.175 174.514 0 194.389 0 214.905c0 2.659.307 4.706 1.131 5.292.227.908.491 1.918.792 3.043.79 5.537 2.556 10.83 4.094 13.922 1.385 4.065 7.5 18.142 9.504 20.877L92.918 433.53a457.69 457.69 0 0 0 5.405 11.125l.005.009c1.3 2.598 2.267 4.53 3.56 7.459 8.331 12.181 13.458 13.962 13.458 13.962 3.204 2.676 13.456 7.836 19.864 9.759 5.127 1.924 22.429.641 26.274-.641 17.943-3.236 22.429-8.976 30.764-21.806l.585-.878.445-.67c.283-.429.535-.815.757-1.161 1.791-1.758 4.182-5.525 8.462-13.312l8.33-14.746c8.218-13.547 24.384-45.004 44.195-80.834.347.053.777.053 1.303.053.641-.642 3.204 1.923 6.408 8.334l54.469 96.81a57.677 57.677 0 0 0 35.245 28.851h.64a57.65 57.65 0 0 0 49.983-14.746c4.897-5.389 10.928-17.162 14.639-24.408l.005-.011c1.138-2.223 2.058-4.019 2.659-5.073 55.419-115.463 91.171-188.107 90.995-209.649 4.486-29.492-15.38-56.419-44.856-61.548-17.302-2.565-34.605 3.847-47.422 16.669a134.754 134.754 0 0 0-19.224 35.262l-28.835 66.036-.59 1.293c-.417.92-.818 1.808-1.203 2.664-.768 1.716-1.469 3.305-2.117 4.773l-.195.443-.113.258Z"/></svg>