<svg xmlns="http://www.w3.org/2000/svg" width="22" height="23" fill="none" viewBox="0 0 22 23"><path fill="context-fill" fill-rule="evenodd" d="M13.416 18H6.768c-1.41 0-2.64-.5-3.515-1.407A4.51 4.51 0 0 1 2 13.452c0-1.11.402-2.26 1.254-3.141a4.5 4.5 0 0 1 1.79-1.13c.254-.75.679-1.404 1.245-1.926C7.222 6.395 8.423 6 9.569 6s2.347.395 3.28 1.256a4.6 4.6 0 0 1 1.155 1.68c1.143.13 2.123.635 2.835 1.425.8.888 1.161 2.02 1.161 3.09 0 1.072-.36 2.204-1.16 3.092-.832.923-2.03 1.457-3.424 1.457m-1.047-7.098c-.002-3.87-5.6-3.87-5.6.002a2.557 2.557 0 0 0 0 5.096h6.647c3.446 0 3.445-5.096 0-5.096h-1.047z" clip-rule="evenodd"/><path fill="context-fill" fill-opacity=".5" d="M17.86 14.6c.433-.21.818-.5 1.14-.858.693-.769 1-1.741 1-2.653s-.307-1.885-1-2.653a3.8 3.8 0 0 0-2.151-1.187 3.9 3.9 0 0 0-.873-1.175A4.13 4.13 0 0 0 13.176 5c-.968 0-1.99.332-2.791 1.067.794.13 1.578.456 2.246 1 1.196-.299 2.646.405 2.646 2.11l.784.001c1.727 0 2.3 1.707 1.72 2.84a4.8 4.8 0 0 1 .08 2.581"/></svg>