<svg xmlns="http://www.w3.org/2000/svg" width="22" height="23" fill="none" viewBox="0 0 22 23"><path fill="context-fill" fill-rule="evenodd" d="M1.003 11A5.06 5.06 0 0 1 2.53 7.19a5.4 5.4 0 0 1 2.423-1.343 5.27 5.27 0 0 1 1.598-2.453C7.664 2.433 9.081 2 10.426 2c1.344 0 2.762.433 3.874 1.394a5.26 5.26 0 0 1 1.528 2.241c1.52.062 2.82.635 3.752 1.604A5.15 5.15 0 0 1 20.997 11h-2.002c.092-1.652-1.055-3.37-3.441-3.37h-1.395v-.002c-.002-4.838-7.466-4.837-7.467 0v.002c-2.557 0-3.786 1.718-3.686 3.37z" clip-rule="evenodd"/><path fill="context-fill" fill-opacity=".5" d="M2 14a1 1 0 0 1 1-1h16a1 1 0 1 1 0 2H3a1 1 0 0 1-1-1M0 17a1 1 0 0 1 1-1h16a1 1 0 1 1 0 2H1a1 1 0 0 1-1-1M4 20a1 1 0 0 1 1-1h16a1 1 0 1 1 0 2H5a1 1 0 0 1-1-1"/></svg>