<svg xmlns="http://www.w3.org/2000/svg" width="22" height="23" fill="none" viewBox="0 0 22 23"><path fill="context-fill" d="M6 15.968c-1.384-.132-2.578-.663-3.47-1.528A5.04 5.04 0 0 1 1 10.815c0-1.31.508-2.633 1.53-3.625a5.4 5.4 0 0 1 2.423-1.343 5.27 5.27 0 0 1 1.598-2.453C7.664 2.433 9.081 2 10.426 2c1.344 0 2.762.433 3.874 1.394a5.26 5.26 0 0 1 1.528 2.241c1.52.062 2.82.635 3.752 1.604A5.15 5.15 0 0 1 21 10.815c0 .914-.238 1.85-.732 2.675a2.2 2.2 0 0 0-1.393-.49c-.349 0-.676.08-.966.22 2.02-1.7 1.235-5.59-2.355-5.59h-1.395v-.002c-.002-4.838-7.466-4.837-7.467 0v.002c-4.68 0-4.91 5.757-.692 6.325z"/><path fill="context-fill" d="M17.379 13.578a3.3 3.3 0 0 1-.539.229q.087.103.16.216a2.3 2.3 0 0 1 .379-.445"/><path fill="#0a84ff" d="M14.447 13.105A1 1 0 0 0 13 14v.535a2.27 2.27 0 0 1 1.447-1.43M13 16.039q.005.095.025.186l.047-.004q-.04-.09-.071-.183M11.462 17.113A1 1 0 0 0 10 18v2a1 1 0 0 0 1.935.356 2.31 2.31 0 0 1-.473-3.243M13 20.772v.192a2 2 0 0 1 .072-.185zM7 14a1 1 0 1 1 2 0v2a1 1 0 1 1-2 0zM8 18a1 1 0 0 0-1 1v2a1 1 0 1 0 2 0v-2a1 1 0 0 0-1-1M11 12a1 1 0 0 0-1 1v2a1 1 0 1 0 2 0v-2a1 1 0 0 0-1-1"/><path fill="#45a1ff" fill-rule="evenodd" d="M15.896 19.143H13.25v-1.286h2.646l-1.307-2.24 1.072-.662L17 17.25l1.34-2.295 1.07.662-1.306 2.24h2.646v1.286h-2.646l1.307 2.24-1.072.662L17 19.749l-1.34 2.296-1.07-.662z" clip-rule="evenodd"/><path fill="#45a1ff" d="M16.375 15.286c0 .71-.56 1.285-1.25 1.285s-1.25-.575-1.25-1.285.56-1.286 1.25-1.286 1.25.576 1.25 1.286M20.125 15.286c0 .71-.56 1.285-1.25 1.285s-1.25-.575-1.25-1.285.56-1.286 1.25-1.286 1.25.576 1.25 1.286M22 18.5c0 .71-.56 1.286-1.25 1.286S19.5 19.21 19.5 18.5s.56-1.286 1.25-1.286S22 17.79 22 18.5M14.5 18.5c0 .71-.56 1.286-1.25 1.286S12 19.21 12 18.5s.56-1.286 1.25-1.286 1.25.576 1.25 1.286M16.375 21.714c0 .71-.56 1.286-1.25 1.286s-1.25-.576-1.25-1.286.56-1.285 1.25-1.285 1.25.575 1.25 1.285M20.125 21.714c0 .71-.56 1.286-1.25 1.286s-1.25-.576-1.25-1.286.56-1.285 1.25-1.285 1.25.575 1.25 1.285"/></svg>