<svg xmlns="http://www.w3.org/2000/svg" width="22" height="23" fill="none" viewBox="0 0 22 23"><path fill="#d7b600" fill-rule="evenodd" d="M12 2a1 1 0 1 0-2 0v1.5a1 1 0 0 0 2 0zM1.5 10.5a1 1 0 1 0 0 2H3a1 1 0 1 0 0-2zm17.5 0a1 1 0 0 0 0 2h1.5a1 1 0 1 0 0-2zm-7 9a1 1 0 1 0-2 0v.5a2 2 0 0 1 1.912 1.411A1 1 0 0 0 12 21zm2-8a3 3 0 0 1-3.817 2.887 2 2 0 0 1 .754 2.113H11A5 5 0 1 0 6.669 14H9q.209 0 .404.04A3 3 0 1 1 14 11.5m-10-7a1 1 0 1 1 2 0 1 1 0 0 1-2 0m13-1a1 1 0 1 0 0 2 1 1 0 0 0 0-2m-1 14a1 1 0 1 1 2 0 1 1 0 0 1-2 0" clip-rule="evenodd"/><path fill="context-fill" fill-opacity=".5" d="M2 22a1 1 0 0 1 1-1h7a1 1 0 1 1 0 2H3a1 1 0 0 1-1-1M0 19a1 1 0 0 1 1-1h7a1 1 0 1 1 0 2H1a1 1 0 0 1-1-1M1 16a1 1 0 0 1 1-1h7a1 1 0 1 1 0 2H2a1 1 0 0 1-1-1"/></svg>