<svg xmlns="http://www.w3.org/2000/svg" width="22" height="23" fill="none" viewBox="0 0 22 23"><path fill="#d7b600" fill-rule="evenodd" d="M10.43 14.446a6 6 0 0 1 .55 2.054H11a5 5 0 1 0-1-9.9v2.07a3 3 0 1 1 .43 5.775M10 20.318c.362-.544.637-1.15.806-1.8q.095-.018.194-.018a1 1 0 0 1 1 1V21a1 1 0 0 1-2 0zM12 2a1 1 0 1 0-2 0v1.5a1 1 0 1 0 2 0zm7 8.5a1 1 0 1 0 0 2h1.5a1 1 0 1 0 0-2zm-2-7a1 1 0 1 0 0 2 1 1 0 0 0 0-2m-1 14a1 1 0 1 1 2 0 1 1 0 0 1-2 0" clip-rule="evenodd"/><path fill="#ff0039" fill-rule="evenodd" d="M4 15.268V6a1 1 0 0 1 2 0v9.268A2.01 2.01 0 0 1 7 17a2 2 0 1 1-3-1.732M7 6a2 2 0 1 0-4 0v8.764a3 3 0 0 0-.906 1.487Q2.001 16.61 2 17a3 3 0 1 0 5-2.236zm2 8a5 5 0 1 1-8 0V6a4 4 0 1 1 8 0z" clip-rule="evenodd"/></svg>