<svg xmlns="http://www.w3.org/2000/svg" width="22" height="23" fill="none" viewBox="0 0 22 23"><path fill="#45a1ff" fill-rule="evenodd" d="M10.436 14.465a6 6 0 0 0-.439-.782v-6.9L11 8.5l1.564-2.681c-.2-.37-.314-.795-.314-1.249 0-1.42 1.12-2.571 2.5-2.571s2.5 1.151 2.5 2.571-1.12 2.572-2.5 2.572h-.042l-1.5 2.571h3.126A2.49 2.49 0 0 1 18.5 8.43c1.38 0 2.5 1.15 2.5 2.571 0 1.42-1.12 2.571-2.5 2.571a2.49 2.49 0 0 1-2.166-1.285h-3.126l1.5 2.572h.042c1.38 0 2.5 1.15 2.5 2.57S16.13 20 14.75 20s-2.5-1.151-2.5-2.571c0-.453.114-.88.314-1.249L11 13.499zm-.69-10.034a2.57 2.57 0 0 0-1.468-2.204A5 5 0 0 1 9.746 4.43" clip-rule="evenodd"/><path fill="#0060df" fill-rule="evenodd" d="M4 15.268V14a1 1 0 1 1 2 0v1.268A2.01 2.01 0 0 1 7 17a2 2 0 1 1-3-1.732m3-.504a3 3 0 0 1 .906 1.487q.093.36.094.749a3 3 0 1 1-5-2.236V6a2 2 0 1 1 4 0zM9 14V6a4 4 0 1 0-8 0v8a5 5 0 1 0 8 0" clip-rule="evenodd"/></svg>