<svg xmlns="http://www.w3.org/2000/svg" width="22" height="23" fill="none" viewBox="0 0 22 23"><path fill="#d7b600" fill-rule="evenodd" d="M14.5 2a.5.5 0 1 0-1 0v1a.5.5 0 0 0 1 0zM20 8.5a.5.5 0 0 0 0 1h1a.5.5 0 1 0 0-1zm-5.536 2.446a2 2 0 1 0-2.462-1.848l-.026-.024a4.05 4.05 0 0 0-1.875-.972A4.002 4.002 0 0 1 18 9a4 4 0 0 1-2.277 3.61 3.83 3.83 0 0 0-1.26-1.664M7.18 8.5a4 4 0 0 0-.68.465A.5.5 0 0 1 7 8.5zM9 4.5a.5.5 0 1 1 1 0 .5.5 0 0 1-1 0m9.5-.5a.5.5 0 1 0 0 1 .5.5 0 0 0 0-1m-.5 9.5a.5.5 0 1 1 1 0 .5.5 0 0 1-1 0" clip-rule="evenodd"/><path fill="context-fill" fill-opacity=".5" fill-rule="evenodd" d="M15 16.742c-.723.803-1.76 1.258-2.938 1.258H7.077c-1.18 0-2.236-.421-2.996-1.208A3.89 3.89 0 0 1 3 14.09c0-.951.344-1.941 1.08-2.703a3.85 3.85 0 0 1 1.314-.888 3.94 3.94 0 0 1 .984-1.424A4.13 4.13 0 0 1 9.177 8c.971 0 1.997.334 2.8 1.074.362.335.656.731.872 1.175A3.8 3.8 0 0 1 15 11.436c.693.768.999 1.741.999 2.653s-.306 1.884-1 2.653m-7.923-4.564a1.918 1.918 0 0 0 0 3.822h4.985c2.584 0 2.584-3.822 0-3.822h-.785c0-2.904-4.2-2.904-4.2 0" clip-rule="evenodd"/></svg>