<svg xmlns="http://www.w3.org/2000/svg" width="22" height="23" fill="none" viewBox="0 0 22 23"><path fill="context-fill" fill-opacity=".5" fill-rule="evenodd" d="M12.403 3.954a6.67 6.67 0 0 0 5.643 5.643 4 4 0 0 1-1.812 1.21q.328.247.605.554c.297.329.533.691.713 1.072a6.02 6.02 0 0 0 3.166-3.6c.23-.713-.55-1.253-1.297-1.186a4.668 4.668 0 0 1-5.067-5.067c.066-.748-.473-1.527-1.187-1.298A6.005 6.005 0 0 0 9 7.032a5 5 0 0 1 2.005.178 3.996 3.996 0 0 1 1.398-3.256" clip-rule="evenodd"/><path fill="context-fill" fill-rule="evenodd" d="M2.022 14a4.5 4.5 0 0 1 1.232-2.69 4.5 4.5 0 0 1 1.79-1.13c.254-.75.679-1.403 1.245-1.925C7.222 7.395 8.423 7 9.569 7s2.347.395 3.28 1.256a4.6 4.6 0 0 1 1.155 1.68c1.143.13 2.123.635 2.835 1.425A4.57 4.57 0 0 1 17.98 14h-2.015c-.18-1.107-1.03-2.096-2.549-2.096H12.37v-.002c-.002-3.87-5.6-3.87-5.6.002-1.627 0-2.537.99-2.73 2.096z" clip-rule="evenodd"/><path fill="context-fill" fill-opacity=".5" d="M5 22a1 1 0 0 1 1-1h10a1 1 0 1 1 0 2H6a1 1 0 0 1-1-1M3 19a1 1 0 0 1 1-1h10a1 1 0 1 1 0 2H4a1 1 0 0 1-1-1M4 16a1 1 0 0 1 1-1h10a1 1 0 1 1 0 2H5a1 1 0 0 1-1-1"/></svg>