<svg xmlns="http://www.w3.org/2000/svg" width="22" height="23" fill="none" viewBox="0 0 22 23"><path fill="context-fill" fill-opacity=".5" fill-rule="evenodd" d="M12.403 3.954a6.67 6.67 0 0 0 5.643 5.643 4 4 0 0 1-1.812 1.21q.328.247.605.554c.297.329.533.691.713 1.072a6.02 6.02 0 0 0 3.166-3.6c.23-.713-.55-1.253-1.297-1.186a4.668 4.668 0 0 1-5.067-5.067c.066-.748-.473-1.527-1.187-1.298A6.005 6.005 0 0 0 9 7.032a5 5 0 0 1 2.005.178 3.996 3.996 0 0 1 1.398-3.256" clip-rule="evenodd"/><path fill="context-fill" fill-rule="evenodd" d="M6 18.948c-1.088-.149-2.034-.618-2.746-1.355A4.51 4.51 0 0 1 2 14.452c0-1.11.402-2.26 1.254-3.141a4.5 4.5 0 0 1 1.79-1.13c.254-.75.679-1.404 1.245-1.926C7.222 7.395 8.423 7 9.569 7s2.347.395 3.28 1.256a4.6 4.6 0 0 1 1.155 1.68c1.143.13 2.123.635 2.835 1.425.8.888 1.161 2.02 1.161 3.09 0 1.072-.36 2.204-1.16 3.092-.714.791-1.696 1.297-2.84 1.425v-2.021c2.85-.542 2.654-5.043-.585-5.043H12.37v-.002c-.002-3.87-5.6-3.87-5.6.002-3.415 0-3.671 4.36-.769 5.014z" clip-rule="evenodd"/><path fill="#ff9400" d="M11 17.5V14l-4 4.667h2V22l4-4.5z"/></svg>