<svg xmlns="http://www.w3.org/2000/svg" width="22" height="23" fill="none" viewBox="0 0 22 23"><path fill="#d7b600" d="M14 1.5a.5.5 0 0 1 .5.5v1a.5.5 0 0 1-1 0V2a.5.5 0 0 1 .5-.5M19.5 9a.5.5 0 0 1 .5-.5h1a.5.5 0 0 1 0 1h-1a.5.5 0 0 1-.5-.5M15.477 10.349a2 2 0 1 0-3.12-2.49 4.8 4.8 0 0 0-1.87-.774A4 4 0 1 1 17.04 11.6a4.302 4.302 0 0 0-1.563-1.251M9.5 4a.5.5 0 1 0 0 1 .5.5 0 0 0 0-1M18 4.5a.5.5 0 1 1 1 0 .5.5 0 0 1-1 0M18.5 13a.5.5 0 1 0 0 1 .5.5 0 0 0 0-1"/><path fill="context-fill" fill-opacity=".5" d="M12 18a1 1 0 1 1 2 0 1 1 0 0 1-2 0M7.5 21a1 1 0 1 1 2 0 1 1 0 0 1-2 0M7.5 15a1 1 0 1 1 2 0 1 1 0 0 1-2 0M10.5 21a1 1 0 1 1 2 0 1 1 0 0 1-2 0M10.5 15a1 1 0 1 1 2 0 1 1 0 0 1-2 0M10 19a1 1 0 1 1 0-2 1 1 0 0 1 0 2M7 19a1 1 0 1 1 0-2 1 1 0 0 1 0 2"/><path fill="context-fill" fill-rule="evenodd" d="M5 18.708a4.5 4.5 0 0 1-1.746-1.115A4.51 4.51 0 0 1 2 14.452c0-1.11.402-2.26 1.254-3.141a4.5 4.5 0 0 1 1.79-1.13c.254-.75.679-1.404 1.245-1.926C7.222 7.395 8.423 7 9.569 7s2.347.395 3.28 1.256a4.6 4.6 0 0 1 1.155 1.68c1.143.13 2.123.635 2.835 1.425.8.888 1.161 2.02 1.161 3.09 0 1.072-.36 2.204-1.16 3.092-.496.55-1.121.961-1.84 1.204v-2.224c1.738-1.267 1.21-4.619-1.585-4.619H12.37v-.002c-.002-3.87-5.6-3.87-5.6.002-2.955 0-3.545 3.265-1.769 4.568z" clip-rule="evenodd"/></svg>