<svg xmlns="http://www.w3.org/2000/svg" width="22" height="23" fill="none" viewBox="0 0 22 23"><path fill="context-fill" fill-rule="evenodd" d="M6 15.968c-1.384-.132-2.578-.663-3.47-1.528A5.04 5.04 0 0 1 1 10.815c0-1.31.508-2.633 1.53-3.625a5.4 5.4 0 0 1 2.423-1.343 5.27 5.27 0 0 1 1.598-2.453C7.664 2.433 9.081 2 10.426 2c1.344 0 2.762.433 3.874 1.394a5.26 5.26 0 0 1 1.528 2.241c1.52.062 2.82.635 3.752 1.604A5.15 5.15 0 0 1 21 10.815a5.15 5.15 0 0 1-1.42 3.576c-.896.932-2.133 1.498-3.58 1.594V13.98c4.144-.398 3.995-6.349-.446-6.349h-1.395v-.002c-.002-4.838-7.466-4.837-7.467 0v.002c-4.68 0-4.91 5.757-.692 6.325z" clip-rule="evenodd"/><path fill="#0a84ff" d="M7 13a1 1 0 1 1 2 0 1 1 0 0 1-2 0M7 16a1 1 0 1 1 2 0 1 1 0 0 1-2 0M13 16a1 1 0 1 1 2 0 1 1 0 0 1-2 0M10 15a1 1 0 1 1 2 0 1 1 0 0 1-2 0M13 13a1 1 0 1 1 2 0 1 1 0 0 1-2 0M10 12a1 1 0 1 1 2 0 1 1 0 0 1-2 0"/><path fill="#0a84ff" d="M7 13a1 1 0 1 1 2 0 1 1 0 0 1-2 0M13 13a1 1 0 1 1 2 0 1 1 0 0 1-2 0M10 12a1 1 0 1 1 2 0 1 1 0 0 1-2 0M7 16a1 1 0 1 1 2 0 1 1 0 0 1-2 0M13 16a1 1 0 1 1 2 0 1 1 0 0 1-2 0M7 19a1 1 0 1 1 2 0 1 1 0 0 1-2 0M13 19a1 1 0 1 1 2 0 1 1 0 0 1-2 0M10 18a1 1 0 1 1 2 0 1 1 0 0 1-2 0"/><path fill="#0a84ff" d="M7 19a1 1 0 1 1 2 0 1 1 0 0 1-2 0M13 19a1 1 0 1 1 2 0 1 1 0 0 1-2 0"/></svg>