<svg xmlns="http://www.w3.org/2000/svg" width="22" height="23" fill="none" viewBox="0 0 22 23"><path fill="context-fill" fill-rule="evenodd" d="M5 15.795c-.962-.245-1.8-.706-2.47-1.355A5.04 5.04 0 0 1 1 10.815c0-1.31.508-2.633 1.53-3.625a5.4 5.4 0 0 1 2.423-1.343 5.27 5.27 0 0 1 1.598-2.453C7.664 2.433 9.081 2 10.426 2c1.344 0 2.762.433 3.874 1.394a5.26 5.26 0 0 1 1.528 2.241c1.52.062 2.82.635 3.752 1.604A5.15 5.15 0 0 1 21 10.815a5.15 5.15 0 0 1-1.42 3.576A5.2 5.2 0 0 1 17 15.837v-2.086c3.084-1.178 2.601-6.121-1.446-6.121h-1.395v-.002c-.002-4.838-7.466-4.837-7.467 0v.002c-4.273 0-4.837 4.8-1.692 6.066z" clip-rule="evenodd"/><path fill="#45a1ff" fill-rule="evenodd" d="M9.896 16.143H7.25v-1.286h2.646l-1.307-2.24 1.072-.662L11 14.251l1.34-2.296 1.07.662-1.306 2.24h2.646v1.286h-2.646l1.307 2.24-1.072.662L11 16.749l-1.34 2.296-1.07-.662z" clip-rule="evenodd"/><path fill="#45a1ff" d="M10.375 12.286c0 .71-.56 1.285-1.25 1.285s-1.25-.575-1.25-1.285S8.435 11 9.125 11s1.25.576 1.25 1.286M14.125 12.286c0 .71-.56 1.285-1.25 1.285s-1.25-.575-1.25-1.285.56-1.286 1.25-1.286 1.25.576 1.25 1.286M16 15.5c0 .71-.56 1.286-1.25 1.286S13.5 16.21 13.5 15.5s.56-1.286 1.25-1.286S16 14.79 16 15.5M8.5 15.5c0 .71-.56 1.286-1.25 1.286S6 16.21 6 15.5s.56-1.286 1.25-1.286S8.5 14.79 8.5 15.5M10.375 18.714c0 .71-.56 1.286-1.25 1.286s-1.25-.576-1.25-1.286.56-1.285 1.25-1.285 1.25.575 1.25 1.285M14.125 18.714c0 .71-.56 1.286-1.25 1.286s-1.25-.576-1.25-1.286.56-1.285 1.25-1.285 1.25.575 1.25 1.285"/></svg>