<svg xmlns="http://www.w3.org/2000/svg" width="22" height="23" fill="none" viewBox="0 0 22 23"><path fill="#d7b600" fill-rule="evenodd" d="M11 .5a1 1 0 0 1 1 1V3a1 1 0 1 1-2 0V1.5a1 1 0 0 1 1-1M.5 11a1 1 0 0 1 1-1H3a1 1 0 1 1 0 2H1.5a1 1 0 0 1-1-1M18 11a1 1 0 0 1 1-1h1.5a1 1 0 1 1 0 2H19a1 1 0 0 1-1-1m-7 7a1 1 0 0 1 1 1v1.5a1 1 0 1 1-2 0V19a1 1 0 0 1 1-1M11 14a3 3 0 1 0 0-6 3 3 0 0 0 0 6m0 2a5 5 0 1 0 0-10 5 5 0 0 0 0 10" clip-rule="evenodd"/><path fill="#d7b600" d="M4 4a1 1 0 1 1 2 0 1 1 0 0 1-2 0M16 4a1 1 0 1 1 2 0 1 1 0 0 1-2 0M16 17a1 1 0 1 1 2 0 1 1 0 0 1-2 0M4 17a1 1 0 1 1 2 0 1 1 0 0 1-2 0"/></svg>