<!-- Grayscale recreation of the Tor Browser icon based on https://upload.wikimedia.org/wikipedia/commons/c/c9/Tor_Browser_icon.svg -->
<svg xmlns="http://www.w3.org/2000/svg" viewBox="0 0 512 512" fill-opacity="context-fill-opacity" width="512" height="512" fill="context-fill"><g clip-path="url(#a)"><path fill-rule="evenodd" d="M256.525 465.44v-31.033c98.301-.284 177.896-80.042 177.896-178.414 0-98.365-79.595-178.123-177.896-178.407V46.553c115.439.291 208.922 93.937 208.922 209.44 0 115.51-93.483 209.163-208.922 209.447m0-108.62c55.445-.291 100.324-45.304 100.324-100.827 0-55.516-44.879-100.529-100.324-100.82v-31.026c72.59.283 131.357 59.192 131.357 131.846 0 72.661-58.767 131.569-131.357 131.853zm0-155.101c29.742.284 53.778 24.461 53.778 54.274 0 29.819-24.036 53.997-53.778 54.281zM0 255.993C0 397.384 114.609 512 256 512c141.384 0 256-114.616 256-256.007C512 114.609 397.384 0 256 0 114.609 0 0 114.609 0 255.993" clip-rule="evenodd"/></g><defs><clipPath id="a"><path d="M0 0h512v512H0z"/></clipPath></defs></svg>